  0
SECTION
  2
HEADER
  9
$ACADVER
  1
AC1014
  9
$HANDSEED
  5
FFFF
  9
$MEASUREMENT
 70
     1
  0
ENDSEC
  0
SECTION
  2
TABLES
  0
TABLE
  2
VPORT
  5
8
330
0
100
AcDbSymbolTable
 70
     4
  0
VPORT
  5
2E
330
8
100
AcDbSymbolTableRecord
100
AcDbViewportTableRecord
  2
*ACTIVE
 70
     0
 10
0.0
 20
0.0
 11
1.0
 21
1.0
 12
210.0
 22
148.5
 13
0.0
 23
0.0
 14
10.0
 24
10.0
 15
10.0
 25
10.0
 16
0.0
 26
0.0
 36
1.0
 17
0.0
 27
0.0
 37
0.0
 40
341.0
 41
1.24
 42
50.0
 43
0.0
 44
0.0
 50
0.0
 51
0.0
 71
     0
 72
   100
 73
     1
 74
     3
 75
     0
 76
     0
 77
     0
 78
     0
  0
ENDTAB
  0
TABLE
  2
LTYPE
  5
5
330
0
100
AcDbSymbolTable
 70
     1
  0
LTYPE
  5
14
330
5
100
AcDbSymbolTableRecord
100
AcDbLinetypeTableRecord
  2
BYBLOCK
 70
     0
  3

 72
    65
 73
     0
 40
0.0
  0
LTYPE
  5
15
330
5
100
AcDbSymbolTableRecord
100
AcDbLinetypeTableRecord
  2
BYLAYER
 70
     0
  3

 72
    65
 73
     0
 40
0.0
  0
LTYPE
  5
16
330
5
100
AcDbSymbolTableRecord
100
AcDbLinetypeTableRecord
  2
CONTINUOUS
 70
     0
  3
Solid line
 72
    65
 73
     0
 40
0.0
  0
ENDTAB
  0
TABLE
  2
LAYER
  5
2
100
AcDbSymbolTable
 70
2
  0
LAYER
  5
50
100
AcDbSymbolTableRecord
100
AcDbLayerTableRecord
  2
0
 70
0
  6
CONTINUOUS
  0
LAYER
  5
51
100
AcDbSymbolTableRecord
100
AcDbLayerTableRecord
  2
Layer_1
 70
0
  6
CONTINUOUS
  0
ENDTAB
  0
TABLE
  2
STYLE
  5
3
330
0
100
AcDbSymbolTable
 70
     1
  0
STYLE
  5
11
330
3
100
AcDbSymbolTableRecord
100
AcDbTextStyleTableRecord
  2
STANDARD
 70
     0
 40
0.0
 41
1.0
 50
0.0
 71
     0
 42
2.5
  3
txt
  4

  0
ENDTAB
  0
TABLE
  2
VIEW
  5
6
330
0
100
AcDbSymbolTable
 70
     0
  0
ENDTAB
  0
TABLE
  2
UCS
  5
7
330
0
100
AcDbSymbolTable
 70
     0
  0
ENDTAB
  0
TABLE
  2
APPID
  5
9
330
0
100
AcDbSymbolTable
 70
     2
  0
APPID
  5
12
330
9
100
AcDbSymbolTableRecord
100
AcDbRegAppTableRecord
  2
ACAD
 70
     0
  0
ENDTAB
  0
TABLE
  2
DIMSTYLE
  5
A
330
0
100
AcDbSymbolTable
 70
     1
  0
DIMSTYLE
105
27
330
A
100
AcDbSymbolTableRecord
100
AcDbDimStyleTableRecord
  2
ISO-25
 70
     0
  3

  4

  5

  6

  7

 40
1.0
 41
2.5
 42
0.625
 43
3.75
 44
1.25
 45
0.0
 46
0.0
 47
0.0
 48
0.0
140
2.5
141
2.5
142
0.0
143
0.03937007874016
144
1.0
145
0.0
146
1.0
147
0.625
 71
     0
 72
     0
 73
     0
 74
     0
 75
     0
 76
     0
 77
     1
 78
     8
170
     0
171
     3
172
     1
173
     0
174
     0
175
     0
176
     0
177
     0
178
     0
270
     2
271
     2
272
     2
273
     2
274
     3
340
11
275
     0
280
     0
281
     0
282
     0
283
     0
284
     8
285
     0
286
     0
287
     3
288
     0
  0
ENDTAB
  0
TABLE
  2
BLOCK_RECORD
  5
1
330
0
100
AcDbSymbolTable
 70
     1
  0
BLOCK_RECORD
  5
1F
330
1
100
AcDbSymbolTableRecord
100
AcDbBlockTableRecord
  2
*MODEL_SPACE
  0
BLOCK_RECORD
  5
1B
330
1
100
AcDbSymbolTableRecord
100
AcDbBlockTableRecord
  2
*PAPER_SPACE
  0
ENDTAB
  0
ENDSEC
  0
SECTION
  2
BLOCKS
  0
BLOCK
  5
20
330
1F
100
AcDbEntity
  8
0
100
AcDbBlockBegin
  2
*MODEL_SPACE
 70
     0
 10
0.0
 20
0.0
 30
0.0
  3
*MODEL_SPACE
  1

  0
ENDBLK
  5
21
330
1F
100
AcDbEntity
  8
0
100
AcDbBlockEnd
  0
BLOCK
  5
1C
330
1B
100
AcDbEntity
 67
     1
  8
0
100
AcDbBlockBegin
  2
*PAPER_SPACE
  1

  0
ENDBLK
  5
1D
330
1B
100
AcDbEntity
 67
     1
  8
0
100
AcDbBlockEnd
  0
ENDSEC
  0
SECTION
  2
ENTITIES
  0
LWPOLYLINE
  5
100
100
AcDbEntity
  8
Layer_1
 62
7
100
AcDbPolyline
 90
15
 70
1
 10
22.630663
 20
41.907290
 30
0.0
 10
41.633244
 20
41.907290
 30
0.0
 10
41.633244
 20
47.654670
 30
0.0
 10
45.134838
 20
47.654670
 30
0.0
 10
45.134838
 20
58.257090
 30
0.0
 10
36.688621
 20
58.257090
 30
0.0
 10
36.688621
 20
63.957550
 30
0.0
 10
27.582666
 20
63.957550
 30
0.0
 10
27.582666
 20
58.260010
 30
0.0
 10
19.132292
 20
58.260010
 30
0.0
 10
19.132292
 20
47.660870
 30
0.0
 10
22.629753
 20
47.660870
 30
0.0
 10
22.630663
 20
41.907290
 30
0.0
 10
22.630663
 20
41.907290
 30
0.0
 10
22.630663
 20
41.907290
 30
0.0
  0
LWPOLYLINE
  5
101
100
AcDbEntity
  8
Layer_1
 62
7
100
AcDbPolyline
 90
47
 70
1
 10
25.250000
 20
32.184000
 30
0.0
 10
25.250000
 20
35.300000
 30
0.0
 10
37.750000
 20
35.300000
 30
0.0
 10
37.750000
 20
32.184000
 30
0.0
 10
37.809000
 20
32.125000
 30
0.0
 10
50.591000
 20
32.125000
 30
0.0
 10
50.650000
 20
32.184000
 30
0.0
 10
50.650000
 20
35.300000
 30
0.0
 10
63.150000
 20
35.300000
 30
0.0
 10
63.150000
 20
32.184000
 30
0.0
 10
63.209000
 20
32.125000
 30
0.0
 10
74.916000
 20
32.125000
 30
0.0
 10
74.975000
 20
32.184000
 30
0.0
 10
74.975000
 20
46.591000
 30
0.0
 10
74.916000
 20
46.650000
 30
0.0
 10
71.800000
 20
46.650000
 30
0.0
 10
71.800000
 20
59.150000
 30
0.0
 10
74.916000
 20
59.150000
 30
0.0
 10
74.975000
 20
59.209000
 30
0.0
 10
74.975000
 20
73.616000
 30
0.0
 10
74.916000
 20
73.675000
 30
0.0
 10
63.209000
 20
73.675000
 30
0.0
 10
63.150000
 20
73.616000
 30
0.0
 10
63.150000
 20
70.500000
 30
0.0
 10
50.650000
 20
70.500000
 30
0.0
 10
50.650000
 20
73.616000
 30
0.0
 10
50.591000
 20
73.675000
 30
0.0
 10
37.809000
 20
73.675000
 30
0.0
 10
37.750000
 20
73.616000
 30
0.0
 10
37.750000
 20
70.500000
 30
0.0
 10
25.250000
 20
70.500000
 30
0.0
 10
25.250000
 20
73.616000
 30
0.0
 10
25.191000
 20
73.675000
 30
0.0
 10
13.484000
 20
73.675000
 30
0.0
 10
13.425000
 20
73.616000
 30
0.0
 10
13.425000
 20
59.209000
 30
0.0
 10
13.484000
 20
59.150000
 30
0.0
 10
16.600000
 20
59.150000
 30
0.0
 10
16.600000
 20
46.650000
 30
0.0
 10
13.484000
 20
46.650000
 30
0.0
 10
13.425000
 20
46.591000
 30
0.0
 10
13.425000
 20
32.184000
 30
0.0
 10
13.484000
 20
32.125000
 30
0.0
 10
25.191000
 20
32.125000
 30
0.0
 10
25.250000
 20
32.184000
 30
0.0
 10
25.250000
 20
32.184000
 30
0.0
 10
25.250000
 20
32.184000
 30
0.0
  0
LWPOLYLINE
  5
102
100
AcDbEntity
  8
Layer_1
 62
7
100
AcDbPolyline
 90
47
 70
1
 10
91.050000
 20
32.184000
 30
0.0
 10
91.050000
 20
35.300000
 30
0.0
 10
103.550000
 20
35.300000
 30
0.0
 10
103.550000
 20
32.184000
 30
0.0
 10
103.609000
 20
32.125000
 30
0.0
 10
116.391000
 20
32.125000
 30
0.0
 10
116.450000
 20
32.184000
 30
0.0
 10
116.450000
 20
35.300000
 30
0.0
 10
128.950000
 20
35.300000
 30
0.0
 10
128.950000
 20
32.184000
 30
0.0
 10
129.009000
 20
32.125000
 30
0.0
 10
138.791000
 20
32.125000
 30
0.0
 10
138.850000
 20
32.184000
 30
0.0
 10
138.850000
 20
46.450000
 30
0.0
 10
141.966000
 20
46.450000
 30
0.0
 10
142.025000
 20
46.509000
 30
0.0
 10
142.025000
 20
59.291000
 30
0.0
 10
141.966000
 20
59.350000
 30
0.0
 10
138.850000
 20
59.350000
 30
0.0
 10
138.850000
 20
73.616000
 30
0.0
 10
138.791000
 20
73.675000
 30
0.0
 10
129.009000
 20
73.675000
 30
0.0
 10
128.950000
 20
73.616000
 30
0.0
 10
128.950000
 20
70.500000
 30
0.0
 10
116.450000
 20
70.500000
 30
0.0
 10
116.450000
 20
73.616000
 30
0.0
 10
116.391000
 20
73.675000
 30
0.0
 10
103.609000
 20
73.675000
 30
0.0
 10
103.550000
 20
73.616000
 30
0.0
 10
103.550000
 20
70.500000
 30
0.0
 10
91.050000
 20
70.500000
 30
0.0
 10
91.050000
 20
73.616000
 30
0.0
 10
90.991000
 20
73.675000
 30
0.0
 10
81.209000
 20
73.675000
 30
0.0
 10
81.150000
 20
73.616000
 30
0.0
 10
81.150000
 20
59.350000
 30
0.0
 10
78.034000
 20
59.350000
 30
0.0
 10
77.975000
 20
59.291000
 30
0.0
 10
77.975000
 20
46.509000
 30
0.0
 10
78.034000
 20
46.450000
 30
0.0
 10
81.150000
 20
46.450000
 30
0.0
 10
81.150000
 20
32.184000
 30
0.0
 10
81.209000
 20
32.125000
 30
0.0
 10
90.991000
 20
32.125000
 30
0.0
 10
91.050000
 20
32.184000
 30
0.0
 10
91.050000
 20
32.184000
 30
0.0
 10
91.050000
 20
32.184000
 30
0.0
  0
LWPOLYLINE
  5
103
100
AcDbEntity
  8
Layer_1
 62
7
100
AcDbPolyline
 90
59
 70
1
 10
169.550000
 20
32.184000
 30
0.0
 10
169.550000
 20
35.300000
 30
0.0
 10
182.050000
 20
35.300000
 30
0.0
 10
182.050000
 20
32.184000
 30
0.0
 10
182.109000
 20
32.125000
 30
0.0
 10
194.891000
 20
32.125000
 30
0.0
 10
194.950000
 20
32.184000
 30
0.0
 10
194.950000
 20
35.300000
 30
0.0
 10
203.341000
 20
35.300000
 30
0.0
 10
203.400000
 20
35.359000
 30
0.0
 10
203.400000
 20
45.000000
 30
0.0
 10
206.516000
 20
45.000000
 30
0.0
 10
206.575000
 20
45.059000
 30
0.0
 10
206.575000
 20
57.841000
 30
0.0
 10
206.516000
 20
57.900000
 30
0.0
 10
203.400000
 20
57.900000
 30
0.0
 10
203.400000
 20
70.400000
 30
0.0
 10
206.516000
 20
70.400000
 30
0.0
 10
206.575000
 20
70.459000
 30
0.0
 10
206.575000
 20
83.241000
 30
0.0
 10
206.516000
 20
83.300000
 30
0.0
 10
203.400000
 20
83.300000
 30
0.0
 10
203.400000
 20
92.941000
 30
0.0
 10
203.341000
 20
93.000000
 30
0.0
 10
194.950000
 20
93.000000
 30
0.0
 10
194.950000
 20
96.116000
 30
0.0
 10
194.891000
 20
96.175000
 30
0.0
 10
182.109000
 20
96.175000
 30
0.0
 10
182.050000
 20
96.116000
 30
0.0
 10
182.050000
 20
93.000000
 30
0.0
 10
169.550000
 20
93.000000
 30
0.0
 10
169.550000
 20
96.116000
 30
0.0
 10
169.491000
 20
96.175000
 30
0.0
 10
156.709000
 20
96.175000
 30
0.0
 10
156.650000
 20
96.116000
 30
0.0
 10
156.650000
 20
93.000000
 30
0.0
 10
148.259000
 20
93.000000
 30
0.0
 10
148.200000
 20
92.941000
 30
0.0
 10
148.200000
 20
83.300000
 30
0.0
 10
145.084000
 20
83.300000
 30
0.0
 10
145.025000
 20
83.241000
 30
0.0
 10
145.025000
 20
70.459000
 30
0.0
 10
145.084000
 20
70.400000
 30
0.0
 10
148.200000
 20
70.400000
 30
0.0
 10
148.200000
 20
57.900000
 30
0.0
 10
145.084000
 20
57.900000
 30
0.0
 10
145.025000
 20
57.841000
 30
0.0
 10
145.025000
 20
45.059000
 30
0.0
 10
145.084000
 20
45.000000
 30
0.0
 10
148.200000
 20
45.000000
 30
0.0
 10
148.200000
 20
35.359000
 30
0.0
 10
148.259000
 20
35.300000
 30
0.0
 10
156.650000
 20
35.300000
 30
0.0
 10
156.650000
 20
32.184000
 30
0.0
 10
156.709000
 20
32.125000
 30
0.0
 10
169.491000
 20
32.125000
 30
0.0
 10
169.550000
 20
32.184000
 30
0.0
 10
169.550000
 20
32.184000
 30
0.0
 10
169.550000
 20
32.184000
 30
0.0
  0
LWPOLYLINE
  5
104
100
AcDbEntity
  8
Layer_1
 62
7
100
AcDbPolyline
 90
47
 70
1
 10
25.250000
 20
76.734000
 30
0.0
 10
25.250000
 20
79.850000
 30
0.0
 10
37.750000
 20
79.850000
 30
0.0
 10
37.750000
 20
76.734000
 30
0.0
 10
37.809000
 20
76.675000
 30
0.0
 10
50.591000
 20
76.675000
 30
0.0
 10
50.650000
 20
76.734000
 30
0.0
 10
50.650000
 20
79.850000
 30
0.0
 10
63.150000
 20
79.850000
 30
0.0
 10
63.150000
 20
76.734000
 30
0.0
 10
63.209000
 20
76.675000
 30
0.0
 10
74.916000
 20
76.675000
 30
0.0
 10
74.975000
 20
76.734000
 30
0.0
 10
74.975000
 20
91.141000
 30
0.0
 10
74.916000
 20
91.200000
 30
0.0
 10
71.800000
 20
91.200000
 30
0.0
 10
71.800000
 20
103.700000
 30
0.0
 10
74.916000
 20
103.700000
 30
0.0
 10
74.975000
 20
103.759000
 30
0.0
 10
74.975000
 20
118.166000
 30
0.0
 10
74.916000
 20
118.225000
 30
0.0
 10
63.209000
 20
118.225000
 30
0.0
 10
63.150000
 20
118.166000
 30
0.0
 10
63.150000
 20
115.050000
 30
0.0
 10
50.650000
 20
115.050000
 30
0.0
 10
50.650000
 20
118.166000
 30
0.0
 10
50.591000
 20
118.225000
 30
0.0
 10
37.809000
 20
118.225000
 30
0.0
 10
37.750000
 20
118.166000
 30
0.0
 10
37.750000
 20
115.050000
 30
0.0
 10
25.250000
 20
115.050000
 30
0.0
 10
25.250000
 20
118.166000
 30
0.0
 10
25.191000
 20
118.225000
 30
0.0
 10
13.484000
 20
118.225000
 30
0.0
 10
13.425000
 20
118.166000
 30
0.0
 10
13.425000
 20
103.759000
 30
0.0
 10
13.484000
 20
103.700000
 30
0.0
 10
16.600000
 20
103.700000
 30
0.0
 10
16.600000
 20
91.200000
 30
0.0
 10
13.484000
 20
91.200000
 30
0.0
 10
13.425000
 20
91.141000
 30
0.0
 10
13.425000
 20
76.734000
 30
0.0
 10
13.484000
 20
76.675000
 30
0.0
 10
25.191000
 20
76.675000
 30
0.0
 10
25.250000
 20
76.734000
 30
0.0
 10
25.250000
 20
76.734000
 30
0.0
 10
25.250000
 20
76.734000
 30
0.0
  0
SPLINE
  5
105
100
AcDbEntity
  8
Layer_1
 62
7
100
AcDbSpline
 70
8
 71
3
 72
8
 73
4
 74
0
 40
0
 40
0
 40
0
 40
0
 40
1
 40
1
 40
1
 40
1
 10
64.993236
 20
44.490009
 30
0.0
 10
64.993236
 20
43.637846
 30
0.0
 10
64.538613
 20
42.850415
 30
0.0
 10
63.800618
 20
42.424334
 30
0.0
  0
SPLINE
  5
106
100
AcDbEntity
  8
Layer_1
 62
7
100
AcDbSpline
 70
8
 71
3
 72
8
 73
4
 74
0
 40
0
 40
0
 40
0
 40
0
 40
1
 40
1
 40
1
 40
1
 10
63.800618
 20
42.424334
 30
0.0
 10
63.062623
 20
41.998252
 30
0.0
 10
62.153376
 20
41.998252
 30
0.0
 10
61.415381
 20
42.424334
 30
0.0
  0
SPLINE
  5
107
100
AcDbEntity
  8
Layer_1
 62
7
100
AcDbSpline
 70
8
 71
3
 72
8
 73
4
 74
0
 40
0
 40
0
 40
0
 40
0
 40
1
 40
1
 40
1
 40
1
 10
61.415381
 20
42.424334
 30
0.0
 10
60.677387
 20
42.850415
 30
0.0
 10
60.222763
 20
43.637846
 30
0.0
 10
60.222763
 20
44.490009
 30
0.0
  0
SPLINE
  5
108
100
AcDbEntity
  8
Layer_1
 62
7
100
AcDbSpline
 70
8
 71
3
 72
8
 73
4
 74
0
 40
0
 40
0
 40
0
 40
0
 40
1
 40
1
 40
1
 40
1
 10
60.222763
 20
44.490009
 30
0.0
 10
60.222763
 20
45.342172
 30
0.0
 10
60.677387
 20
46.129603
 30
0.0
 10
61.415381
 20
46.555684
 30
0.0
  0
SPLINE
  5
109
100
AcDbEntity
  8
Layer_1
 62
7
100
AcDbSpline
 70
8
 71
3
 72
8
 73
4
 74
0
 40
0
 40
0
 40
0
 40
0
 40
1
 40
1
 40
1
 40
1
 10
61.415381
 20
46.555684
 30
0.0
 10
62.153376
 20
46.981766
 30
0.0
 10
63.062623
 20
46.981766
 30
0.0
 10
63.800618
 20
46.555684
 30
0.0
  0
SPLINE
  5
10a
100
AcDbEntity
  8
Layer_1
 62
7
100
AcDbSpline
 70
8
 71
3
 72
8
 73
4
 74
0
 40
0
 40
0
 40
0
 40
0
 40
1
 40
1
 40
1
 40
1
 10
63.800618
 20
46.555684
 30
0.0
 10
64.538613
 20
46.129603
 30
0.0
 10
64.993236
 20
45.342172
 30
0.0
 10
64.993236
 20
44.490009
 30
0.0
  0
LWPOLYLINE
  5
10b
100
AcDbEntity
  8
Layer_1
 62
7
100
AcDbPolyline
 90
47
 70
1
 10
91.050000
 20
76.734000
 30
0.0
 10
91.050000
 20
79.850000
 30
0.0
 10
103.550000
 20
79.850000
 30
0.0
 10
103.550000
 20
76.734000
 30
0.0
 10
103.609000
 20
76.675000
 30
0.0
 10
116.391000
 20
76.675000
 30
0.0
 10
116.450000
 20
76.734000
 30
0.0
 10
116.450000
 20
79.850000
 30
0.0
 10
128.950000
 20
79.850000
 30
0.0
 10
128.950000
 20
76.734000
 30
0.0
 10
129.009000
 20
76.675000
 30
0.0
 10
138.791000
 20
76.675000
 30
0.0
 10
138.850000
 20
76.734000
 30
0.0
 10
138.850000
 20
91.000000
 30
0.0
 10
141.966000
 20
91.000000
 30
0.0
 10
142.025000
 20
91.059000
 30
0.0
 10
142.025000
 20
103.841000
 30
0.0
 10
141.966000
 20
103.900000
 30
0.0
 10
138.850000
 20
103.900000
 30
0.0
 10
138.850000
 20
118.166000
 30
0.0
 10
138.791000
 20
118.225000
 30
0.0
 10
129.009000
 20
118.225000
 30
0.0
 10
128.950000
 20
118.166000
 30
0.0
 10
128.950000
 20
115.050000
 30
0.0
 10
116.450000
 20
115.050000
 30
0.0
 10
116.450000
 20
118.166000
 30
0.0
 10
116.391000
 20
118.225000
 30
0.0
 10
103.609000
 20
118.225000
 30
0.0
 10
103.550000
 20
118.166000
 30
0.0
 10
103.550000
 20
115.050000
 30
0.0
 10
91.050000
 20
115.050000
 30
0.0
 10
91.050000
 20
118.166000
 30
0.0
 10
90.991000
 20
118.225000
 30
0.0
 10
81.209000
 20
118.225000
 30
0.0
 10
81.150000
 20
118.166000
 30
0.0
 10
81.150000
 20
103.900000
 30
0.0
 10
78.034000
 20
103.900000
 30
0.0
 10
77.975000
 20
103.841000
 30
0.0
 10
77.975000
 20
91.059000
 30
0.0
 10
78.034000
 20
91.000000
 30
0.0
 10
81.150000
 20
91.000000
 30
0.0
 10
81.150000
 20
76.734000
 30
0.0
 10
81.209000
 20
76.675000
 30
0.0
 10
90.991000
 20
76.675000
 30
0.0
 10
91.050000
 20
76.734000
 30
0.0
 10
91.050000
 20
76.734000
 30
0.0
 10
91.050000
 20
76.734000
 30
0.0
  0
SPLINE
  5
10c
100
AcDbEntity
  8
Layer_1
 62
7
100
AcDbSpline
 70
8
 71
3
 72
8
 73
4
 74
0
 40
0
 40
0
 40
0
 40
0
 40
1
 40
1
 40
1
 40
1
 10
52.993239
 20
44.490009
 30
0.0
 10
52.993239
 20
43.637846
 30
0.0
 10
52.538615
 20
42.850415
 30
0.0
 10
51.800621
 20
42.424334
 30
0.0
  0
SPLINE
  5
10d
100
AcDbEntity
  8
Layer_1
 62
7
100
AcDbSpline
 70
8
 71
3
 72
8
 73
4
 74
0
 40
0
 40
0
 40
0
 40
0
 40
1
 40
1
 40
1
 40
1
 10
51.800621
 20
42.424334
 30
0.0
 10
51.062626
 20
41.998252
 30
0.0
 10
50.153379
 20
41.998252
 30
0.0
 10
49.415384
 20
42.424334
 30
0.0
  0
SPLINE
  5
10e
100
AcDbEntity
  8
Layer_1
 62
7
100
AcDbSpline
 70
8
 71
3
 72
8
 73
4
 74
0
 40
0
 40
0
 40
0
 40
0
 40
1
 40
1
 40
1
 40
1
 10
49.415384
 20
42.424334
 30
0.0
 10
48.677389
 20
42.850415
 30
0.0
 10
48.222766
 20
43.637846
 30
0.0
 10
48.222766
 20
44.490009
 30
0.0
  0
SPLINE
  5
10f
100
AcDbEntity
  8
Layer_1
 62
7
100
AcDbSpline
 70
8
 71
3
 72
8
 73
4
 74
0
 40
0
 40
0
 40
0
 40
0
 40
1
 40
1
 40
1
 40
1
 10
48.222766
 20
44.490009
 30
0.0
 10
48.222766
 20
45.342172
 30
0.0
 10
48.677389
 20
46.129603
 30
0.0
 10
49.415384
 20
46.555684
 30
0.0
  0
SPLINE
  5
110
100
AcDbEntity
  8
Layer_1
 62
7
100
AcDbSpline
 70
8
 71
3
 72
8
 73
4
 74
0
 40
0
 40
0
 40
0
 40
0
 40
1
 40
1
 40
1
 40
1
 10
49.415384
 20
46.555684
 30
0.0
 10
50.153379
 20
46.981766
 30
0.0
 10
51.062626
 20
46.981766
 30
0.0
 10
51.800621
 20
46.555684
 30
0.0
  0
SPLINE
  5
111
100
AcDbEntity
  8
Layer_1
 62
7
100
AcDbSpline
 70
8
 71
3
 72
8
 73
4
 74
0
 40
0
 40
0
 40
0
 40
0
 40
1
 40
1
 40
1
 40
1
 10
51.800621
 20
46.555684
 30
0.0
 10
52.538615
 20
46.129603
 30
0.0
 10
52.993239
 20
45.342172
 30
0.0
 10
52.993239
 20
44.490009
 30
0.0
  0
LWPOLYLINE
  5
112
100
AcDbEntity
  8
Layer_1
 62
7
100
AcDbPolyline
 90
59
 70
1
 10
169.550000
 20
99.234000
 30
0.0
 10
169.550000
 20
102.350000
 30
0.0
 10
182.050000
 20
102.350000
 30
0.0
 10
182.050000
 20
99.234000
 30
0.0
 10
182.109000
 20
99.175000
 30
0.0
 10
194.891000
 20
99.175000
 30
0.0
 10
194.950000
 20
99.234000
 30
0.0
 10
194.950000
 20
102.350000
 30
0.0
 10
203.341000
 20
102.350000
 30
0.0
 10
203.400000
 20
102.409000
 30
0.0
 10
203.400000
 20
112.050000
 30
0.0
 10
206.516000
 20
112.050000
 30
0.0
 10
206.575000
 20
112.109000
 30
0.0
 10
206.575000
 20
124.891000
 30
0.0
 10
206.516000
 20
124.950000
 30
0.0
 10
203.400000
 20
124.950000
 30
0.0
 10
203.400000
 20
137.450000
 30
0.0
 10
206.516000
 20
137.450000
 30
0.0
 10
206.575000
 20
137.509000
 30
0.0
 10
206.575000
 20
150.291000
 30
0.0
 10
206.516000
 20
150.350000
 30
0.0
 10
203.400000
 20
150.350000
 30
0.0
 10
203.400000
 20
159.991000
 30
0.0
 10
203.341000
 20
160.050000
 30
0.0
 10
194.950000
 20
160.050000
 30
0.0
 10
194.950000
 20
163.166000
 30
0.0
 10
194.891000
 20
163.225000
 30
0.0
 10
182.109000
 20
163.225000
 30
0.0
 10
182.050000
 20
163.166000
 30
0.0
 10
182.050000
 20
160.050000
 30
0.0
 10
169.550000
 20
160.050000
 30
0.0
 10
169.550000
 20
163.166000
 30
0.0
 10
169.491000
 20
163.225000
 30
0.0
 10
156.709000
 20
163.225000
 30
0.0
 10
156.650000
 20
163.166000
 30
0.0
 10
156.650000
 20
160.050000
 30
0.0
 10
148.259000
 20
160.050000
 30
0.0
 10
148.200000
 20
159.991000
 30
0.0
 10
148.200000
 20
150.350000
 30
0.0
 10
145.084000
 20
150.350000
 30
0.0
 10
145.025000
 20
150.291000
 30
0.0
 10
145.025000
 20
137.509000
 30
0.0
 10
145.084000
 20
137.450000
 30
0.0
 10
148.200000
 20
137.450000
 30
0.0
 10
148.200000
 20
124.950000
 30
0.0
 10
145.084000
 20
124.950000
 30
0.0
 10
145.025000
 20
124.891000
 30
0.0
 10
145.025000
 20
112.109000
 30
0.0
 10
145.084000
 20
112.050000
 30
0.0
 10
148.200000
 20
112.050000
 30
0.0
 10
148.200000
 20
102.409000
 30
0.0
 10
148.259000
 20
102.350000
 30
0.0
 10
156.650000
 20
102.350000
 30
0.0
 10
156.650000
 20
99.234000
 30
0.0
 10
156.709000
 20
99.175000
 30
0.0
 10
169.491000
 20
99.175000
 30
0.0
 10
169.550000
 20
99.234000
 30
0.0
 10
169.550000
 20
99.234000
 30
0.0
 10
169.550000
 20
99.234000
 30
0.0
  0
LWPOLYLINE
  5
113
100
AcDbEntity
  8
Layer_1
 62
7
100
AcDbPolyline
 90
4
 70
1
 10
49.466905
 20
63.959847
 30
0.0
 10
68.866906
 20
63.959847
 30
0.0
 10
68.866906
 20
50.859847
 30
0.0
 10
49.466905
 20
50.859847
 30
0.0
  0
LWPOLYLINE
  5
114
100
AcDbEntity
  8
Layer_1
 62
7
100
AcDbPolyline
 90
14
 70
1
 10
197.287335
 20
242.717713
 30
0.0
 10
178.284756
 20
242.717713
 30
0.0
 10
178.284756
 20
236.970333
 30
0.0
 10
174.783163
 20
236.970333
 30
0.0
 10
174.783163
 20
226.367913
 30
0.0
 10
183.229377
 20
226.367913
 30
0.0
 10
183.229377
 20
220.667452
 30
0.0
 10
192.335331
 20
220.667452
 30
0.0
 10
192.335331
 20
226.364992
 30
0.0
 10
200.785706
 20
226.364992
 30
0.0
 10
200.785706
 20
236.964131
 30
0.0
 10
197.288245
 20
236.964131
 30
0.0
 10
197.287345
 20
242.717713
 30
0.0
 10
197.287345
 20
242.717713
 30
0.0
  0
LWPOLYLINE
  5
115
100
AcDbEntity
  8
Layer_1
 62
7
100
AcDbPolyline
 90
44
 70
1
 10
194.667998
 20
252.441010
 30
0.0
 10
194.667998
 20
249.325002
 30
0.0
 10
182.167998
 20
249.325002
 30
0.0
 10
182.167998
 20
252.441010
 30
0.0
 10
182.108996
 20
252.500012
 30
0.0
 10
169.326999
 20
252.500012
 30
0.0
 10
169.268000
 20
252.441010
 30
0.0
 10
169.268000
 20
249.325002
 30
0.0
 10
156.768001
 20
249.325002
 30
0.0
 10
156.768001
 20
252.441010
 30
0.0
 10
156.708999
 20
252.500012
 30
0.0
 10
145.001999
 20
252.500012
 30
0.0
 10
144.942999
 20
252.441010
 30
0.0
 10
144.942999
 20
238.034003
 30
0.0
 10
145.001999
 20
237.975001
 30
0.0
 10
148.117999
 20
237.975001
 30
0.0
 10
148.117999
 20
225.475002
 30
0.0
 10
145.001999
 20
225.475002
 30
0.0
 10
144.942999
 20
225.416003
 30
0.0
 10
144.942999
 20
211.009001
 30
0.0
 10
145.001999
 20
210.950002
 30
0.0
 10
156.708999
 20
210.950002
 30
0.0
 10
156.768001
 20
211.009001
 30
0.0
 10
156.768001
 20
214.125002
 30
0.0
 10
169.268000
 20
214.125002
 30
0.0
 10
169.268000
 20
211.009001
 30
0.0
 10
169.326999
 20
210.950002
 30
0.0
 10
182.108996
 20
210.950002
 30
0.0
 10
182.167998
 20
211.009001
 30
0.0
 10
182.167998
 20
214.125002
 30
0.0
 10
194.667998
 20
214.125002
 30
0.0
 10
194.667998
 20
211.009001
 30
0.0
 10
194.726998
 20
210.950002
 30
0.0
 10
206.433998
 20
210.950002
 30
0.0
 10
206.492998
 20
211.009001
 30
0.0
 10
206.492998
 20
225.416003
 30
0.0
 10
206.433998
 20
225.475002
 30
0.0
 10
203.317998
 20
225.475002
 30
0.0
 10
203.317998
 20
237.975001
 30
0.0
 10
206.433998
 20
237.975001
 30
0.0
 10
206.492998
 20
238.034003
 30
0.0
 10
206.492998
 20
252.441010
 30
0.0
 10
206.433998
 20
252.500012
 30
0.0
 10
194.726998
 20
252.500012
 30
0.0
  0
LWPOLYLINE
  5
116
100
AcDbEntity
  8
Layer_1
 62
7
100
AcDbPolyline
 90
44
 70
1
 10
128.868001
 20
252.441010
 30
0.0
 10
128.868001
 20
249.325002
 30
0.0
 10
116.367999
 20
249.325002
 30
0.0
 10
116.367999
 20
252.441010
 30
0.0
 10
116.309000
 20
252.500012
 30
0.0
 10
103.527000
 20
252.500012
 30
0.0
 10
103.468001
 20
252.441010
 30
0.0
 10
103.468001
 20
249.325002
 30
0.0
 10
90.967999
 20
249.325002
 30
0.0
 10
90.967999
 20
252.441010
 30
0.0
 10
90.909000
 20
252.500012
 30
0.0
 10
81.126999
 20
252.500012
 30
0.0
 10
81.068000
 20
252.441010
 30
0.0
 10
81.068000
 20
238.175002
 30
0.0
 10
77.951999
 20
238.175002
 30
0.0
 10
77.893000
 20
238.116003
 30
0.0
 10
77.893000
 20
225.334003
 30
0.0
 10
77.951999
 20
225.275001
 30
0.0
 10
81.068000
 20
225.275001
 30
0.0
 10
81.068000
 20
211.009001
 30
0.0
 10
81.126999
 20
210.950002
 30
0.0
 10
90.909000
 20
210.950002
 30
0.0
 10
90.967999
 20
211.009001
 30
0.0
 10
90.967999
 20
214.125002
 30
0.0
 10
103.468001
 20
214.125002
 30
0.0
 10
103.468001
 20
211.009001
 30
0.0
 10
103.527000
 20
210.950002
 30
0.0
 10
116.309000
 20
210.950002
 30
0.0
 10
116.367999
 20
211.009001
 30
0.0
 10
116.367999
 20
214.125002
 30
0.0
 10
128.868001
 20
214.125002
 30
0.0
 10
128.868001
 20
211.009001
 30
0.0
 10
128.927000
 20
210.950002
 30
0.0
 10
138.709000
 20
210.950002
 30
0.0
 10
138.768000
 20
211.009001
 30
0.0
 10
138.768000
 20
225.275001
 30
0.0
 10
141.884000
 20
225.275001
 30
0.0
 10
141.943000
 20
225.334003
 30
0.0
 10
141.943000
 20
238.116003
 30
0.0
 10
141.884000
 20
238.175002
 30
0.0
 10
138.768000
 20
238.175002
 30
0.0
 10
138.768000
 20
252.441010
 30
0.0
 10
138.709000
 20
252.500012
 30
0.0
 10
128.927000
 20
252.500012
 30
0.0
  0
LWPOLYLINE
  5
117
100
AcDbEntity
  8
Layer_1
 62
7
100
AcDbPolyline
 90
56
 70
1
 10
50.367999
 20
252.441010
 30
0.0
 10
50.367999
 20
249.325002
 30
0.0
 10
37.868000
 20
249.325002
 30
0.0
 10
37.868000
 20
252.441010
 30
0.0
 10
37.809001
 20
252.500012
 30
0.0
 10
25.026998
 20
252.500012
 30
0.0
 10
24.967999
 20
252.441010
 30
0.0
 10
24.967999
 20
249.325002
 30
0.0
 10
16.577000
 20
249.325002
 30
0.0
 10
16.517998
 20
249.266002
 30
0.0
 10
16.517998
 20
239.625004
 30
0.0
 10
13.402000
 20
239.625004
 30
0.0
 10
13.342998
 20
239.566002
 30
0.0
 10
13.342998
 20
226.784002
 30
0.0
 10
13.402000
 20
226.725002
 30
0.0
 10
16.517998
 20
226.725002
 30
0.0
 10
16.517998
 20
214.225004
 30
0.0
 10
13.402000
 20
214.225004
 30
0.0
 10
13.342998
 20
214.166002
 30
0.0
 10
13.342998
 20
201.384002
 30
0.0
 10
13.402000
 20
201.325002
 30
0.0
 10
16.517998
 20
201.325002
 30
0.0
 10
16.517998
 20
191.684001
 30
0.0
 10
16.577000
 20
191.625002
 30
0.0
 10
24.967999
 20
191.625002
 30
0.0
 10
24.967999
 20
188.509001
 30
0.0
 10
25.026998
 20
188.450002
 30
0.0
 10
37.809001
 20
188.450002
 30
0.0
 10
37.868000
 20
188.509001
 30
0.0
 10
37.868000
 20
191.625002
 30
0.0
 10
50.367999
 20
191.625002
 30
0.0
 10
50.367999
 20
188.509001
 30
0.0
 10
50.426998
 20
188.450002
 30
0.0
 10
63.209001
 20
188.450002
 30
0.0
 10
63.268000
 20
188.509001
 30
0.0
 10
63.268000
 20
191.625002
 30
0.0
 10
71.658999
 20
191.625002
 30
0.0
 10
71.718001
 20
191.684001
 30
0.0
 10
71.718001
 20
201.325002
 30
0.0
 10
74.833999
 20
201.325002
 30
0.0
 10
74.893001
 20
201.384002
 30
0.0
 10
74.893001
 20
214.166002
 30
0.0
 10
74.833999
 20
214.225004
 30
0.0
 10
71.718001
 20
214.225004
 30
0.0
 10
71.718001
 20
226.725002
 30
0.0
 10
74.833999
 20
226.725002
 30
0.0
 10
74.893001
 20
226.784002
 30
0.0
 10
74.893001
 20
239.566002
 30
0.0
 10
74.833999
 20
239.625004
 30
0.0
 10
71.718001
 20
239.625004
 30
0.0
 10
71.718001
 20
249.266002
 30
0.0
 10
71.658999
 20
249.325002
 30
0.0
 10
63.268000
 20
249.325002
 30
0.0
 10
63.268000
 20
252.441010
 30
0.0
 10
63.209001
 20
252.500012
 30
0.0
 10
50.426998
 20
252.500012
 30
0.0
  0
LWPOLYLINE
  5
118
100
AcDbEntity
  8
Layer_1
 62
7
100
AcDbPolyline
 90
44
 70
1
 10
194.667998
 20
207.891003
 30
0.0
 10
194.667998
 20
204.775002
 30
0.0
 10
182.167998
 20
204.775002
 30
0.0
 10
182.167998
 20
207.891003
 30
0.0
 10
182.108996
 20
207.950002
 30
0.0
 10
169.326999
 20
207.950002
 30
0.0
 10
169.268000
 20
207.891003
 30
0.0
 10
169.268000
 20
204.775002
 30
0.0
 10
156.768001
 20
204.775002
 30
0.0
 10
156.768001
 20
207.891003
 30
0.0
 10
156.708999
 20
207.950002
 30
0.0
 10
145.001999
 20
207.950002
 30
0.0
 10
144.942999
 20
207.891003
 30
0.0
 10
144.942999
 20
193.484001
 30
0.0
 10
145.001999
 20
193.425002
 30
0.0
 10
148.117999
 20
193.425002
 30
0.0
 10
148.117999
 20
180.925003
 30
0.0
 10
145.001999
 20
180.925003
 30
0.0
 10
144.942999
 20
180.866004
 30
0.0
 10
144.942999
 20
166.459002
 30
0.0
 10
145.001999
 20
166.400002
 30
0.0
 10
156.708999
 20
166.400002
 30
0.0
 10
156.768001
 20
166.459002
 30
0.0
 10
156.768001
 20
169.575002
 30
0.0
 10
169.268000
 20
169.575002
 30
0.0
 10
169.268000
 20
166.459002
 30
0.0
 10
169.326999
 20
166.400002
 30
0.0
 10
182.108996
 20
166.400002
 30
0.0
 10
182.167998
 20
166.459002
 30
0.0
 10
182.167998
 20
169.575002
 30
0.0
 10
194.667998
 20
169.575002
 30
0.0
 10
194.667998
 20
166.459002
 30
0.0
 10
194.726998
 20
166.400002
 30
0.0
 10
206.433998
 20
166.400002
 30
0.0
 10
206.492998
 20
166.459002
 30
0.0
 10
206.492998
 20
180.866004
 30
0.0
 10
206.433998
 20
180.925003
 30
0.0
 10
203.317998
 20
180.925003
 30
0.0
 10
203.317998
 20
193.425002
 30
0.0
 10
206.433998
 20
193.425002
 30
0.0
 10
206.492998
 20
193.484001
 30
0.0
 10
206.492998
 20
207.891003
 30
0.0
 10
206.433998
 20
207.950002
 30
0.0
 10
194.726998
 20
207.950002
 30
0.0
  0
SPLINE
  5
119
100
AcDbEntity
  8
Layer_1
 62
7
100
AcDbSpline
 70
8
 71
3
 72
8
 73
4
 74
0
 40
0
 40
0
 40
0
 40
0
 40
1
 40
1
 40
1
 40
1
 10
154.924763
 20
240.134993
 30
0.0
 10
154.924763
 20
240.987155
 30
0.0
 10
155.379386
 20
241.774587
 30
0.0
 10
156.117383
 20
242.200669
 30
0.0
  0
SPLINE
  5
11a
100
AcDbEntity
  8
Layer_1
 62
7
100
AcDbSpline
 70
8
 71
3
 72
8
 73
4
 74
0
 40
0
 40
0
 40
0
 40
0
 40
1
 40
1
 40
1
 40
1
 10
156.117383
 20
242.200669
 30
0.0
 10
156.855377
 20
242.626749
 30
0.0
 10
157.764623
 20
242.626749
 30
0.0
 10
158.502620
 20
242.200669
 30
0.0
  0
SPLINE
  5
11b
100
AcDbEntity
  8
Layer_1
 62
7
100
AcDbSpline
 70
8
 71
3
 72
8
 73
4
 74
0
 40
0
 40
0
 40
0
 40
0
 40
1
 40
1
 40
1
 40
1
 10
158.502620
 20
242.200669
 30
0.0
 10
159.240612
 20
241.774587
 30
0.0
 10
159.695237
 20
240.987155
 30
0.0
 10
159.695237
 20
240.134993
 30
0.0
  0
SPLINE
  5
11c
100
AcDbEntity
  8
Layer_1
 62
7
100
AcDbSpline
 70
8
 71
3
 72
8
 73
4
 74
0
 40
0
 40
0
 40
0
 40
0
 40
1
 40
1
 40
1
 40
1
 10
159.695237
 20
240.134993
 30
0.0
 10
159.695237
 20
239.282831
 30
0.0
 10
159.240612
 20
238.495399
 30
0.0
 10
158.502620
 20
238.069317
 30
0.0
  0
SPLINE
  5
11d
100
AcDbEntity
  8
Layer_1
 62
7
100
AcDbSpline
 70
8
 71
3
 72
8
 73
4
 74
0
 40
0
 40
0
 40
0
 40
0
 40
1
 40
1
 40
1
 40
1
 10
158.502620
 20
238.069317
 30
0.0
 10
157.764623
 20
237.643237
 30
0.0
 10
156.855377
 20
237.643237
 30
0.0
 10
156.117383
 20
238.069317
 30
0.0
  0
SPLINE
  5
11e
100
AcDbEntity
  8
Layer_1
 62
7
100
AcDbSpline
 70
8
 71
3
 72
8
 73
4
 74
0
 40
0
 40
0
 40
0
 40
0
 40
1
 40
1
 40
1
 40
1
 10
156.117383
 20
238.069317
 30
0.0
 10
155.379386
 20
238.495399
 30
0.0
 10
154.924763
 20
239.282831
 30
0.0
 10
154.924763
 20
240.134993
 30
0.0
  0
LWPOLYLINE
  5
11f
100
AcDbEntity
  8
Layer_1
 62
7
100
AcDbPolyline
 90
44
 70
1
 10
128.868001
 20
207.891003
 30
0.0
 10
128.868001
 20
204.775002
 30
0.0
 10
116.367999
 20
204.775002
 30
0.0
 10
116.367999
 20
207.891003
 30
0.0
 10
116.309000
 20
207.950002
 30
0.0
 10
103.527000
 20
207.950002
 30
0.0
 10
103.468001
 20
207.891003
 30
0.0
 10
103.468001
 20
204.775002
 30
0.0
 10
90.967999
 20
204.775002
 30
0.0
 10
90.967999
 20
207.891003
 30
0.0
 10
90.909000
 20
207.950002
 30
0.0
 10
81.126999
 20
207.950002
 30
0.0
 10
81.068000
 20
207.891003
 30
0.0
 10
81.068000
 20
193.625003
 30
0.0
 10
77.951999
 20
193.625003
 30
0.0
 10
77.893000
 20
193.566004
 30
0.0
 10
77.893000
 20
180.784001
 30
0.0
 10
77.951999
 20
180.725002
 30
0.0
 10
81.068000
 20
180.725002
 30
0.0
 10
81.068000
 20
166.459002
 30
0.0
 10
81.126999
 20
166.400002
 30
0.0
 10
90.909000
 20
166.400002
 30
0.0
 10
90.967999
 20
166.459002
 30
0.0
 10
90.967999
 20
169.575002
 30
0.0
 10
103.468001
 20
169.575002
 30
0.0
 10
103.468001
 20
166.459002
 30
0.0
 10
103.527000
 20
166.400002
 30
0.0
 10
116.309000
 20
166.400002
 30
0.0
 10
116.367999
 20
166.459002
 30
0.0
 10
116.367999
 20
169.575002
 30
0.0
 10
128.868001
 20
169.575002
 30
0.0
 10
128.868001
 20
166.459002
 30
0.0
 10
128.927000
 20
166.400002
 30
0.0
 10
138.709000
 20
166.400002
 30
0.0
 10
138.768000
 20
166.459002
 30
0.0
 10
138.768000
 20
180.725002
 30
0.0
 10
141.884000
 20
180.725002
 30
0.0
 10
141.943000
 20
180.784001
 30
0.0
 10
141.943000
 20
193.566004
 30
0.0
 10
141.884000
 20
193.625003
 30
0.0
 10
138.768000
 20
193.625003
 30
0.0
 10
138.768000
 20
207.891003
 30
0.0
 10
138.709000
 20
207.950002
 30
0.0
 10
128.927000
 20
207.950002
 30
0.0
  0
SPLINE
  5
120
100
AcDbEntity
  8
Layer_1
 62
7
100
AcDbSpline
 70
8
 71
3
 72
8
 73
4
 74
0
 40
0
 40
0
 40
0
 40
0
 40
1
 40
1
 40
1
 40
1
 10
166.924760
 20
240.134993
 30
0.0
 10
166.924760
 20
240.987155
 30
0.0
 10
167.379385
 20
241.774587
 30
0.0
 10
168.117377
 20
242.200669
 30
0.0
  0
SPLINE
  5
121
100
AcDbEntity
  8
Layer_1
 62
7
100
AcDbSpline
 70
8
 71
3
 72
8
 73
4
 74
0
 40
0
 40
0
 40
0
 40
0
 40
1
 40
1
 40
1
 40
1
 10
168.117377
 20
242.200669
 30
0.0
 10
168.855374
 20
242.626749
 30
0.0
 10
169.764620
 20
242.626749
 30
0.0
 10
170.502614
 20
242.200669
 30
0.0
  0
SPLINE
  5
122
100
AcDbEntity
  8
Layer_1
 62
7
100
AcDbSpline
 70
8
 71
3
 72
8
 73
4
 74
0
 40
0
 40
0
 40
0
 40
0
 40
1
 40
1
 40
1
 40
1
 10
170.502614
 20
242.200669
 30
0.0
 10
171.240611
 20
241.774587
 30
0.0
 10
171.695234
 20
240.987155
 30
0.0
 10
171.695234
 20
240.134993
 30
0.0
  0
SPLINE
  5
123
100
AcDbEntity
  8
Layer_1
 62
7
100
AcDbSpline
 70
8
 71
3
 72
8
 73
4
 74
0
 40
0
 40
0
 40
0
 40
0
 40
1
 40
1
 40
1
 40
1
 10
171.695234
 20
240.134993
 30
0.0
 10
171.695234
 20
239.282831
 30
0.0
 10
171.240611
 20
238.495399
 30
0.0
 10
170.502614
 20
238.069317
 30
0.0
  0
SPLINE
  5
124
100
AcDbEntity
  8
Layer_1
 62
7
100
AcDbSpline
 70
8
 71
3
 72
8
 73
4
 74
0
 40
0
 40
0
 40
0
 40
0
 40
1
 40
1
 40
1
 40
1
 10
170.502614
 20
238.069317
 30
0.0
 10
169.764620
 20
237.643237
 30
0.0
 10
168.855374
 20
237.643237
 30
0.0
 10
168.117377
 20
238.069317
 30
0.0
  0
SPLINE
  5
125
100
AcDbEntity
  8
Layer_1
 62
7
100
AcDbSpline
 70
8
 71
3
 72
8
 73
4
 74
0
 40
0
 40
0
 40
0
 40
0
 40
1
 40
1
 40
1
 40
1
 10
168.117377
 20
238.069317
 30
0.0
 10
167.379385
 20
238.495399
 30
0.0
 10
166.924760
 20
239.282831
 30
0.0
 10
166.924760
 20
240.134993
 30
0.0
  0
LWPOLYLINE
  5
126
100
AcDbEntity
  8
Layer_1
 62
7
100
AcDbPolyline
 90
56
 70
1
 10
50.367999
 20
185.391003
 30
0.0
 10
50.367999
 20
182.275002
 30
0.0
 10
37.868000
 20
182.275002
 30
0.0
 10
37.868000
 20
185.391003
 30
0.0
 10
37.809001
 20
185.450002
 30
0.0
 10
25.026998
 20
185.450002
 30
0.0
 10
24.967999
 20
185.391003
 30
0.0
 10
24.967999
 20
182.275002
 30
0.0
 10
16.577000
 20
182.275002
 30
0.0
 10
16.517998
 20
182.216003
 30
0.0
 10
16.517998
 20
172.575002
 30
0.0
 10
13.402000
 20
172.575002
 30
0.0
 10
13.342998
 20
172.516002
 30
0.0
 10
13.342998
 20
159.734003
 30
0.0
 10
13.402000
 20
159.675003
 30
0.0
 10
16.517998
 20
159.675003
 30
0.0
 10
16.517998
 20
147.175002
 30
0.0
 10
13.402000
 20
147.175002
 30
0.0
 10
13.342998
 20
147.116002
 30
0.0
 10
13.342998
 20
134.334003
 30
0.0
 10
13.402000
 20
134.275003
 30
0.0
 10
16.517998
 20
134.275003
 30
0.0
 10
16.517998
 20
124.634001
 30
0.0
 10
16.577000
 20
124.575002
 30
0.0
 10
24.967999
 20
124.575002
 30
0.0
 10
24.967999
 20
121.459001
 30
0.0
 10
25.026998
 20
121.400002
 30
0.0
 10
37.809001
 20
121.400002
 30
0.0
 10
37.868000
 20
121.459001
 30
0.0
 10
37.868000
 20
124.575002
 30
0.0
 10
50.367999
 20
124.575002
 30
0.0
 10
50.367999
 20
121.459001
 30
0.0
 10
50.426998
 20
121.400002
 30
0.0
 10
63.209001
 20
121.400002
 30
0.0
 10
63.268000
 20
121.459001
 30
0.0
 10
63.268000
 20
124.575002
 30
0.0
 10
71.658999
 20
124.575002
 30
0.0
 10
71.718001
 20
124.634001
 30
0.0
 10
71.718001
 20
134.275003
 30
0.0
 10
74.833999
 20
134.275003
 30
0.0
 10
74.893001
 20
134.334003
 30
0.0
 10
74.893001
 20
147.116002
 30
0.0
 10
74.833999
 20
147.175002
 30
0.0
 10
71.718001
 20
147.175002
 30
0.0
 10
71.718001
 20
159.675003
 30
0.0
 10
74.833999
 20
159.675003
 30
0.0
 10
74.893001
 20
159.734003
 30
0.0
 10
74.893001
 20
172.516002
 30
0.0
 10
74.833999
 20
172.575002
 30
0.0
 10
71.718001
 20
172.575002
 30
0.0
 10
71.718001
 20
182.216003
 30
0.0
 10
71.658999
 20
182.275002
 30
0.0
 10
63.268000
 20
182.275002
 30
0.0
 10
63.268000
 20
185.391003
 30
0.0
 10
63.209001
 20
185.450002
 30
0.0
 10
50.426998
 20
185.450002
 30
0.0
  0
LWPOLYLINE
  5
127
100
AcDbEntity
  8
Layer_1
 62
7
100
AcDbPolyline
 90
4
 70
1
 10
170.451092
 20
220.665155
 30
0.0
 10
151.051091
 20
220.665155
 30
0.0
 10
151.051091
 20
233.765155
 30
0.0
 10
170.451092
 20
233.765155
 30
0.0
  0
ENDSEC
  0
SECTION
  2
OBJECTS
  0
DICTIONARY
  5
C
330
0
100
AcDbDictionary
  3
ACAD_GROUP
350
D
  3
ACAD_MLINESTYLE
350
17
  0
DICTIONARY
  5
D
330
C
100
AcDbDictionary
  0
DICTIONARY
  5
1A
330
C
100
AcDbDictionary
  0
DICTIONARY
  5
17
330
C
100
AcDbDictionary
  3
STANDARD
350
18
  0
DICTIONARY
  5
19
330
C
100
AcDbDictionary
  0
ENDSEC
  0
EOF
