  0
SECTION
  2
HEADER
  9
$ACADVER
  1
AC1014
  9
$HANDSEED
  5
FFFF
  9
$MEASUREMENT
 70
     1
  0
ENDSEC
  0
SECTION
  2
TABLES
  0
TABLE
  2
VPORT
  5
8
330
0
100
AcDbSymbolTable
 70
     4
  0
VPORT
  5
2E
330
8
100
AcDbSymbolTableRecord
100
AcDbViewportTableRecord
  2
*ACTIVE
 70
     0
 10
0.0
 20
0.0
 11
1.0
 21
1.0
 12
210.0
 22
148.5
 13
0.0
 23
0.0
 14
10.0
 24
10.0
 15
10.0
 25
10.0
 16
0.0
 26
0.0
 36
1.0
 17
0.0
 27
0.0
 37
0.0
 40
341.0
 41
1.24
 42
50.0
 43
0.0
 44
0.0
 50
0.0
 51
0.0
 71
     0
 72
   100
 73
     1
 74
     3
 75
     0
 76
     0
 77
     0
 78
     0
  0
ENDTAB
  0
TABLE
  2
LTYPE
  5
5
330
0
100
AcDbSymbolTable
 70
     1
  0
LTYPE
  5
14
330
5
100
AcDbSymbolTableRecord
100
AcDbLinetypeTableRecord
  2
BYBLOCK
 70
     0
  3

 72
    65
 73
     0
 40
0.0
  0
LTYPE
  5
15
330
5
100
AcDbSymbolTableRecord
100
AcDbLinetypeTableRecord
  2
BYLAYER
 70
     0
  3

 72
    65
 73
     0
 40
0.0
  0
LTYPE
  5
16
330
5
100
AcDbSymbolTableRecord
100
AcDbLinetypeTableRecord
  2
CONTINUOUS
 70
     0
  3
Solid line
 72
    65
 73
     0
 40
0.0
  0
ENDTAB
  0
TABLE
  2
LAYER
  5
2
100
AcDbSymbolTable
 70
2
  0
LAYER
  5
50
100
AcDbSymbolTableRecord
100
AcDbLayerTableRecord
  2
0
 70
0
  6
CONTINUOUS
  0
LAYER
  5
51
100
AcDbSymbolTableRecord
100
AcDbLayerTableRecord
  2
Layer_1
 70
0
  6
CONTINUOUS
  0
ENDTAB
  0
TABLE
  2
STYLE
  5
3
330
0
100
AcDbSymbolTable
 70
     1
  0
STYLE
  5
11
330
3
100
AcDbSymbolTableRecord
100
AcDbTextStyleTableRecord
  2
STANDARD
 70
     0
 40
0.0
 41
1.0
 50
0.0
 71
     0
 42
2.5
  3
txt
  4

  0
ENDTAB
  0
TABLE
  2
VIEW
  5
6
330
0
100
AcDbSymbolTable
 70
     0
  0
ENDTAB
  0
TABLE
  2
UCS
  5
7
330
0
100
AcDbSymbolTable
 70
     0
  0
ENDTAB
  0
TABLE
  2
APPID
  5
9
330
0
100
AcDbSymbolTable
 70
     2
  0
APPID
  5
12
330
9
100
AcDbSymbolTableRecord
100
AcDbRegAppTableRecord
  2
ACAD
 70
     0
  0
ENDTAB
  0
TABLE
  2
DIMSTYLE
  5
A
330
0
100
AcDbSymbolTable
 70
     1
  0
DIMSTYLE
105
27
330
A
100
AcDbSymbolTableRecord
100
AcDbDimStyleTableRecord
  2
ISO-25
 70
     0
  3

  4

  5

  6

  7

 40
1.0
 41
2.5
 42
0.625
 43
3.75
 44
1.25
 45
0.0
 46
0.0
 47
0.0
 48
0.0
140
2.5
141
2.5
142
0.0
143
0.03937007874016
144
1.0
145
0.0
146
1.0
147
0.625
 71
     0
 72
     0
 73
     0
 74
     0
 75
     0
 76
     0
 77
     1
 78
     8
170
     0
171
     3
172
     1
173
     0
174
     0
175
     0
176
     0
177
     0
178
     0
270
     2
271
     2
272
     2
273
     2
274
     3
340
11
275
     0
280
     0
281
     0
282
     0
283
     0
284
     8
285
     0
286
     0
287
     3
288
     0
  0
ENDTAB
  0
TABLE
  2
BLOCK_RECORD
  5
1
330
0
100
AcDbSymbolTable
 70
     1
  0
BLOCK_RECORD
  5
1F
330
1
100
AcDbSymbolTableRecord
100
AcDbBlockTableRecord
  2
*MODEL_SPACE
  0
BLOCK_RECORD
  5
1B
330
1
100
AcDbSymbolTableRecord
100
AcDbBlockTableRecord
  2
*PAPER_SPACE
  0
ENDTAB
  0
ENDSEC
  0
SECTION
  2
BLOCKS
  0
BLOCK
  5
20
330
1F
100
AcDbEntity
  8
0
100
AcDbBlockBegin
  2
*MODEL_SPACE
 70
     0
 10
0.0
 20
0.0
 30
0.0
  3
*MODEL_SPACE
  1

  0
ENDBLK
  5
21
330
1F
100
AcDbEntity
  8
0
100
AcDbBlockEnd
  0
BLOCK
  5
1C
330
1B
100
AcDbEntity
 67
     1
  8
0
100
AcDbBlockBegin
  2
*PAPER_SPACE
  1

  0
ENDBLK
  5
1D
330
1B
100
AcDbEntity
 67
     1
  8
0
100
AcDbBlockEnd
  0
ENDSEC
  0
SECTION
  2
ENTITIES
  0
LWPOLYLINE
  5
100
100
AcDbEntity
  8
Layer_1
 62
7
100
AcDbPolyline
 90
13
 70
1
 10
22.630663
 20
41.907290
 30
0.0
 10
41.633244
 20
41.907290
 30
0.0
 10
41.633244
 20
47.654670
 30
0.0
 10
45.134838
 20
47.654670
 30
0.0
 10
45.134838
 20
58.257090
 30
0.0
 10
36.688621
 20
58.257090
 30
0.0
 10
36.688621
 20
63.957550
 30
0.0
 10
27.582666
 20
63.957550
 30
0.0
 10
27.582666
 20
58.260010
 30
0.0
 10
19.132292
 20
58.260010
 30
0.0
 10
19.132292
 20
47.660870
 30
0.0
 10
22.629753
 20
47.660870
 30
0.0
 10
22.630663
 20
41.907290
 30
0.0
  0
LWPOLYLINE
  5
101
100
AcDbEntity
  8
Layer_1
 62
7
100
AcDbPolyline
 90
45
 70
1
 10
25.250000
 20
32.184000
 30
0.0
 10
25.250000
 20
35.300000
 30
0.0
 10
37.750000
 20
35.300000
 30
0.0
 10
37.750000
 20
32.184000
 30
0.0
 10
37.809000
 20
32.125000
 30
0.0
 10
50.591000
 20
32.125000
 30
0.0
 10
50.650000
 20
32.184000
 30
0.0
 10
50.650000
 20
35.300000
 30
0.0
 10
63.150000
 20
35.300000
 30
0.0
 10
63.150000
 20
32.184000
 30
0.0
 10
63.209000
 20
32.125000
 30
0.0
 10
74.916000
 20
32.125000
 30
0.0
 10
74.975000
 20
32.184000
 30
0.0
 10
74.975000
 20
46.591000
 30
0.0
 10
74.916000
 20
46.650000
 30
0.0
 10
71.800000
 20
46.650000
 30
0.0
 10
71.800000
 20
59.150000
 30
0.0
 10
74.916000
 20
59.150000
 30
0.0
 10
74.975000
 20
59.209000
 30
0.0
 10
74.975000
 20
73.616000
 30
0.0
 10
74.916000
 20
73.675000
 30
0.0
 10
63.209000
 20
73.675000
 30
0.0
 10
63.150000
 20
73.616000
 30
0.0
 10
63.150000
 20
70.500000
 30
0.0
 10
50.650000
 20
70.500000
 30
0.0
 10
50.650000
 20
73.616000
 30
0.0
 10
50.591000
 20
73.675000
 30
0.0
 10
37.809000
 20
73.675000
 30
0.0
 10
37.750000
 20
73.616000
 30
0.0
 10
37.750000
 20
70.500000
 30
0.0
 10
25.250000
 20
70.500000
 30
0.0
 10
25.250000
 20
73.616000
 30
0.0
 10
25.191000
 20
73.675000
 30
0.0
 10
13.484000
 20
73.675000
 30
0.0
 10
13.425000
 20
73.616000
 30
0.0
 10
13.425000
 20
59.209000
 30
0.0
 10
13.484000
 20
59.150000
 30
0.0
 10
16.600000
 20
59.150000
 30
0.0
 10
16.600000
 20
46.650000
 30
0.0
 10
13.484000
 20
46.650000
 30
0.0
 10
13.425000
 20
46.591000
 30
0.0
 10
13.425000
 20
32.184000
 30
0.0
 10
13.484000
 20
32.125000
 30
0.0
 10
25.191000
 20
32.125000
 30
0.0
 10
25.250000
 20
32.184000
 30
0.0
  0
LWPOLYLINE
  5
102
100
AcDbEntity
  8
Layer_1
 62
7
100
AcDbPolyline
 90
45
 70
1
 10
91.050000
 20
32.184000
 30
0.0
 10
91.050000
 20
35.300000
 30
0.0
 10
103.550000
 20
35.300000
 30
0.0
 10
103.550000
 20
32.184000
 30
0.0
 10
103.609000
 20
32.125000
 30
0.0
 10
116.391000
 20
32.125000
 30
0.0
 10
116.450000
 20
32.184000
 30
0.0
 10
116.450000
 20
35.300000
 30
0.0
 10
128.950000
 20
35.300000
 30
0.0
 10
128.950000
 20
32.184000
 30
0.0
 10
129.009000
 20
32.125000
 30
0.0
 10
138.791000
 20
32.125000
 30
0.0
 10
138.850000
 20
32.184000
 30
0.0
 10
138.850000
 20
46.450000
 30
0.0
 10
141.966000
 20
46.450000
 30
0.0
 10
142.025000
 20
46.509000
 30
0.0
 10
142.025000
 20
59.291000
 30
0.0
 10
141.966000
 20
59.350000
 30
0.0
 10
138.850000
 20
59.350000
 30
0.0
 10
138.850000
 20
73.616000
 30
0.0
 10
138.791000
 20
73.675000
 30
0.0
 10
129.009000
 20
73.675000
 30
0.0
 10
128.950000
 20
73.616000
 30
0.0
 10
128.950000
 20
70.500000
 30
0.0
 10
116.450000
 20
70.500000
 30
0.0
 10
116.450000
 20
73.616000
 30
0.0
 10
116.391000
 20
73.675000
 30
0.0
 10
103.609000
 20
73.675000
 30
0.0
 10
103.550000
 20
73.616000
 30
0.0
 10
103.550000
 20
70.500000
 30
0.0
 10
91.050000
 20
70.500000
 30
0.0
 10
91.050000
 20
73.616000
 30
0.0
 10
90.991000
 20
73.675000
 30
0.0
 10
81.209000
 20
73.675000
 30
0.0
 10
81.150000
 20
73.616000
 30
0.0
 10
81.150000
 20
59.350000
 30
0.0
 10
78.034000
 20
59.350000
 30
0.0
 10
77.975000
 20
59.291000
 30
0.0
 10
77.975000
 20
46.509000
 30
0.0
 10
78.034000
 20
46.450000
 30
0.0
 10
81.150000
 20
46.450000
 30
0.0
 10
81.150000
 20
32.184000
 30
0.0
 10
81.209000
 20
32.125000
 30
0.0
 10
90.991000
 20
32.125000
 30
0.0
 10
91.050000
 20
32.184000
 30
0.0
  0
LWPOLYLINE
  5
103
100
AcDbEntity
  8
Layer_1
 62
7
100
AcDbPolyline
 90
57
 70
1
 10
169.550000
 20
32.184000
 30
0.0
 10
169.550000
 20
35.300000
 30
0.0
 10
182.050000
 20
35.300000
 30
0.0
 10
182.050000
 20
32.184000
 30
0.0
 10
182.109000
 20
32.125000
 30
0.0
 10
194.891000
 20
32.125000
 30
0.0
 10
194.950000
 20
32.184000
 30
0.0
 10
194.950000
 20
35.300000
 30
0.0
 10
203.341000
 20
35.300000
 30
0.0
 10
203.400000
 20
35.359000
 30
0.0
 10
203.400000
 20
45.000000
 30
0.0
 10
206.516000
 20
45.000000
 30
0.0
 10
206.575000
 20
45.059000
 30
0.0
 10
206.575000
 20
57.841000
 30
0.0
 10
206.516000
 20
57.900000
 30
0.0
 10
203.400000
 20
57.900000
 30
0.0
 10
203.400000
 20
70.400000
 30
0.0
 10
206.516000
 20
70.400000
 30
0.0
 10
206.575000
 20
70.459000
 30
0.0
 10
206.575000
 20
83.241000
 30
0.0
 10
206.516000
 20
83.300000
 30
0.0
 10
203.400000
 20
83.300000
 30
0.0
 10
203.400000
 20
92.941000
 30
0.0
 10
203.341000
 20
93.000000
 30
0.0
 10
194.950000
 20
93.000000
 30
0.0
 10
194.950000
 20
96.116000
 30
0.0
 10
194.891000
 20
96.175000
 30
0.0
 10
182.109000
 20
96.175000
 30
0.0
 10
182.050000
 20
96.116000
 30
0.0
 10
182.050000
 20
93.000000
 30
0.0
 10
169.550000
 20
93.000000
 30
0.0
 10
169.550000
 20
96.116000
 30
0.0
 10
169.491000
 20
96.175000
 30
0.0
 10
156.709000
 20
96.175000
 30
0.0
 10
156.650000
 20
96.116000
 30
0.0
 10
156.650000
 20
93.000000
 30
0.0
 10
148.259000
 20
93.000000
 30
0.0
 10
148.200000
 20
92.941000
 30
0.0
 10
148.200000
 20
83.300000
 30
0.0
 10
145.084000
 20
83.300000
 30
0.0
 10
145.025000
 20
83.241000
 30
0.0
 10
145.025000
 20
70.459000
 30
0.0
 10
145.084000
 20
70.400000
 30
0.0
 10
148.200000
 20
70.400000
 30
0.0
 10
148.200000
 20
57.900000
 30
0.0
 10
145.084000
 20
57.900000
 30
0.0
 10
145.025000
 20
57.841000
 30
0.0
 10
145.025000
 20
45.059000
 30
0.0
 10
145.084000
 20
45.000000
 30
0.0
 10
148.200000
 20
45.000000
 30
0.0
 10
148.200000
 20
35.359000
 30
0.0
 10
148.259000
 20
35.300000
 30
0.0
 10
156.650000
 20
35.300000
 30
0.0
 10
156.650000
 20
32.184000
 30
0.0
 10
156.709000
 20
32.125000
 30
0.0
 10
169.491000
 20
32.125000
 30
0.0
 10
169.550000
 20
32.184000
 30
0.0
  0
LWPOLYLINE
  5
104
100
AcDbEntity
  8
Layer_1
 62
7
100
AcDbPolyline
 90
45
 70
1
 10
25.250000
 20
76.734000
 30
0.0
 10
25.250000
 20
79.850000
 30
0.0
 10
37.750000
 20
79.850000
 30
0.0
 10
37.750000
 20
76.734000
 30
0.0
 10
37.809000
 20
76.675000
 30
0.0
 10
50.591000
 20
76.675000
 30
0.0
 10
50.650000
 20
76.734000
 30
0.0
 10
50.650000
 20
79.850000
 30
0.0
 10
63.150000
 20
79.850000
 30
0.0
 10
63.150000
 20
76.734000
 30
0.0
 10
63.209000
 20
76.675000
 30
0.0
 10
74.916000
 20
76.675000
 30
0.0
 10
74.975000
 20
76.734000
 30
0.0
 10
74.975000
 20
91.141000
 30
0.0
 10
74.916000
 20
91.200000
 30
0.0
 10
71.800000
 20
91.200000
 30
0.0
 10
71.800000
 20
103.700000
 30
0.0
 10
74.916000
 20
103.700000
 30
0.0
 10
74.975000
 20
103.759000
 30
0.0
 10
74.975000
 20
118.166000
 30
0.0
 10
74.916000
 20
118.225000
 30
0.0
 10
63.209000
 20
118.225000
 30
0.0
 10
63.150000
 20
118.166000
 30
0.0
 10
63.150000
 20
115.050000
 30
0.0
 10
50.650000
 20
115.050000
 30
0.0
 10
50.650000
 20
118.166000
 30
0.0
 10
50.591000
 20
118.225000
 30
0.0
 10
37.809000
 20
118.225000
 30
0.0
 10
37.750000
 20
118.166000
 30
0.0
 10
37.750000
 20
115.050000
 30
0.0
 10
25.250000
 20
115.050000
 30
0.0
 10
25.250000
 20
118.166000
 30
0.0
 10
25.191000
 20
118.225000
 30
0.0
 10
13.484000
 20
118.225000
 30
0.0
 10
13.425000
 20
118.166000
 30
0.0
 10
13.425000
 20
103.759000
 30
0.0
 10
13.484000
 20
103.700000
 30
0.0
 10
16.600000
 20
103.700000
 30
0.0
 10
16.600000
 20
91.200000
 30
0.0
 10
13.484000
 20
91.200000
 30
0.0
 10
13.425000
 20
91.141000
 30
0.0
 10
13.425000
 20
76.734000
 30
0.0
 10
13.484000
 20
76.675000
 30
0.0
 10
25.191000
 20
76.675000
 30
0.0
 10
25.250000
 20
76.734000
 30
0.0
  0
LWPOLYLINE
  5
105
100
AcDbEntity
  8
Layer_1
 62
7
100
AcDbPolyline
 90
45
 70
1
 10
91.050000
 20
76.734000
 30
0.0
 10
91.050000
 20
79.850000
 30
0.0
 10
103.550000
 20
79.850000
 30
0.0
 10
103.550000
 20
76.734000
 30
0.0
 10
103.609000
 20
76.675000
 30
0.0
 10
116.391000
 20
76.675000
 30
0.0
 10
116.450000
 20
76.734000
 30
0.0
 10
116.450000
 20
79.850000
 30
0.0
 10
128.950000
 20
79.850000
 30
0.0
 10
128.950000
 20
76.734000
 30
0.0
 10
129.009000
 20
76.675000
 30
0.0
 10
138.791000
 20
76.675000
 30
0.0
 10
138.850000
 20
76.734000
 30
0.0
 10
138.850000
 20
91.000000
 30
0.0
 10
141.966000
 20
91.000000
 30
0.0
 10
142.025000
 20
91.059000
 30
0.0
 10
142.025000
 20
103.841000
 30
0.0
 10
141.966000
 20
103.900000
 30
0.0
 10
138.850000
 20
103.900000
 30
0.0
 10
138.850000
 20
118.166000
 30
0.0
 10
138.791000
 20
118.225000
 30
0.0
 10
129.009000
 20
118.225000
 30
0.0
 10
128.950000
 20
118.166000
 30
0.0
 10
128.950000
 20
115.050000
 30
0.0
 10
116.450000
 20
115.050000
 30
0.0
 10
116.450000
 20
118.166000
 30
0.0
 10
116.391000
 20
118.225000
 30
0.0
 10
103.609000
 20
118.225000
 30
0.0
 10
103.550000
 20
118.166000
 30
0.0
 10
103.550000
 20
115.050000
 30
0.0
 10
91.050000
 20
115.050000
 30
0.0
 10
91.050000
 20
118.166000
 30
0.0
 10
90.991000
 20
118.225000
 30
0.0
 10
81.209000
 20
118.225000
 30
0.0
 10
81.150000
 20
118.166000
 30
0.0
 10
81.150000
 20
103.900000
 30
0.0
 10
78.034000
 20
103.900000
 30
0.0
 10
77.975000
 20
103.841000
 30
0.0
 10
77.975000
 20
91.059000
 30
0.0
 10
78.034000
 20
91.000000
 30
0.0
 10
81.150000
 20
91.000000
 30
0.0
 10
81.150000
 20
76.734000
 30
0.0
 10
81.209000
 20
76.675000
 30
0.0
 10
90.991000
 20
76.675000
 30
0.0
 10
91.050000
 20
76.734000
 30
0.0
  0
LWPOLYLINE
  5
106
100
AcDbEntity
  8
Layer_1
 62
7
100
AcDbPolyline
 90
57
 70
1
 10
169.550000
 20
99.234000
 30
0.0
 10
169.550000
 20
102.350000
 30
0.0
 10
182.050000
 20
102.350000
 30
0.0
 10
182.050000
 20
99.234000
 30
0.0
 10
182.109000
 20
99.175000
 30
0.0
 10
194.891000
 20
99.175000
 30
0.0
 10
194.950000
 20
99.234000
 30
0.0
 10
194.950000
 20
102.350000
 30
0.0
 10
203.341000
 20
102.350000
 30
0.0
 10
203.400000
 20
102.409000
 30
0.0
 10
203.400000
 20
112.050000
 30
0.0
 10
206.516000
 20
112.050000
 30
0.0
 10
206.575000
 20
112.109000
 30
0.0
 10
206.575000
 20
124.891000
 30
0.0
 10
206.516000
 20
124.950000
 30
0.0
 10
203.400000
 20
124.950000
 30
0.0
 10
203.400000
 20
137.450000
 30
0.0
 10
206.516000
 20
137.450000
 30
0.0
 10
206.575000
 20
137.509000
 30
0.0
 10
206.575000
 20
150.291000
 30
0.0
 10
206.516000
 20
150.350000
 30
0.0
 10
203.400000
 20
150.350000
 30
0.0
 10
203.400000
 20
159.991000
 30
0.0
 10
203.341000
 20
160.050000
 30
0.0
 10
194.950000
 20
160.050000
 30
0.0
 10
194.950000
 20
163.166000
 30
0.0
 10
194.891000
 20
163.225000
 30
0.0
 10
182.109000
 20
163.225000
 30
0.0
 10
182.050000
 20
163.166000
 30
0.0
 10
182.050000
 20
160.050000
 30
0.0
 10
169.550000
 20
160.050000
 30
0.0
 10
169.550000
 20
163.166000
 30
0.0
 10
169.491000
 20
163.225000
 30
0.0
 10
156.709000
 20
163.225000
 30
0.0
 10
156.650000
 20
163.166000
 30
0.0
 10
156.650000
 20
160.050000
 30
0.0
 10
148.259000
 20
160.050000
 30
0.0
 10
148.200000
 20
159.991000
 30
0.0
 10
148.200000
 20
150.350000
 30
0.0
 10
145.084000
 20
150.350000
 30
0.0
 10
145.025000
 20
150.291000
 30
0.0
 10
145.025000
 20
137.509000
 30
0.0
 10
145.084000
 20
137.450000
 30
0.0
 10
148.200000
 20
137.450000
 30
0.0
 10
148.200000
 20
124.950000
 30
0.0
 10
145.084000
 20
124.950000
 30
0.0
 10
145.025000
 20
124.891000
 30
0.0
 10
145.025000
 20
112.109000
 30
0.0
 10
145.084000
 20
112.050000
 30
0.0
 10
148.200000
 20
112.050000
 30
0.0
 10
148.200000
 20
102.409000
 30
0.0
 10
148.259000
 20
102.350000
 30
0.0
 10
156.650000
 20
102.350000
 30
0.0
 10
156.650000
 20
99.234000
 30
0.0
 10
156.709000
 20
99.175000
 30
0.0
 10
169.491000
 20
99.175000
 30
0.0
 10
169.550000
 20
99.234000
 30
0.0
  0
LWPOLYLINE
  5
107
100
AcDbEntity
  8
Layer_1
 62
7
100
AcDbPolyline
 90
12
 70
1
 10
197.171241
 20
246.555484
 30
0.0
 10
178.168662
 20
246.555484
 30
0.0
 10
178.168662
 20
240.808109
 30
0.0
 10
174.667069
 20
240.808109
 30
0.0
 10
174.667069
 20
230.205689
 30
0.0
 10
183.113283
 20
230.205689
 30
0.0
 10
183.113283
 20
224.505228
 30
0.0
 10
192.219236
 20
224.505228
 30
0.0
 10
192.219236
 20
230.202768
 30
0.0
 10
200.669612
 20
230.202768
 30
0.0
 10
200.669612
 20
240.801907
 30
0.0
 10
197.172151
 20
240.801907
 30
0.0
  0
LWPOLYLINE
  5
108
100
AcDbEntity
  8
Layer_1
 62
7
100
AcDbPolyline
 90
44
 70
1
 10
194.551903
 20
256.278789
 30
0.0
 10
194.551903
 20
253.162764
 30
0.0
 10
182.051904
 20
253.162764
 30
0.0
 10
182.051904
 20
256.278789
 30
0.0
 10
181.992902
 20
256.337791
 30
0.0
 10
169.210905
 20
256.337791
 30
0.0
 10
169.151906
 20
256.278789
 30
0.0
 10
169.151906
 20
253.162764
 30
0.0
 10
156.651907
 20
253.162764
 30
0.0
 10
156.651907
 20
256.278789
 30
0.0
 10
156.592905
 20
256.337791
 30
0.0
 10
144.885905
 20
256.337791
 30
0.0
 10
144.826905
 20
256.278789
 30
0.0
 10
144.826905
 20
241.871779
 30
0.0
 10
144.885905
 20
241.812777
 30
0.0
 10
148.001905
 20
241.812777
 30
0.0
 10
148.001905
 20
229.312778
 30
0.0
 10
144.885905
 20
229.312778
 30
0.0
 10
144.826905
 20
229.253779
 30
0.0
 10
144.826905
 20
214.846777
 30
0.0
 10
144.885905
 20
214.787778
 30
0.0
 10
156.592905
 20
214.787778
 30
0.0
 10
156.651907
 20
214.846777
 30
0.0
 10
156.651907
 20
217.962778
 30
0.0
 10
169.151906
 20
217.962778
 30
0.0
 10
169.151906
 20
214.846777
 30
0.0
 10
169.210905
 20
214.787778
 30
0.0
 10
181.992902
 20
214.787778
 30
0.0
 10
182.051904
 20
214.846777
 30
0.0
 10
182.051904
 20
217.962778
 30
0.0
 10
194.551903
 20
217.962778
 30
0.0
 10
194.551903
 20
214.846777
 30
0.0
 10
194.610905
 20
214.787778
 30
0.0
 10
206.317905
 20
214.787778
 30
0.0
 10
206.376905
 20
214.846777
 30
0.0
 10
206.376905
 20
229.253779
 30
0.0
 10
206.317905
 20
229.312778
 30
0.0
 10
203.201905
 20
229.312778
 30
0.0
 10
203.201905
 20
241.812777
 30
0.0
 10
206.317905
 20
241.812777
 30
0.0
 10
206.376905
 20
241.871779
 30
0.0
 10
206.376905
 20
256.278789
 30
0.0
 10
206.317905
 20
256.337791
 30
0.0
 10
194.610905
 20
256.337791
 30
0.0
  0
LWPOLYLINE
  5
109
100
AcDbEntity
  8
Layer_1
 62
7
100
AcDbPolyline
 90
44
 70
1
 10
128.751907
 20
256.278789
 30
0.0
 10
128.751907
 20
253.162764
 30
0.0
 10
116.251905
 20
253.162764
 30
0.0
 10
116.251905
 20
256.278789
 30
0.0
 10
116.192906
 20
256.337791
 30
0.0
 10
103.410906
 20
256.337791
 30
0.0
 10
103.351907
 20
256.278789
 30
0.0
 10
103.351907
 20
253.162764
 30
0.0
 10
90.851905
 20
253.162764
 30
0.0
 10
90.851905
 20
256.278789
 30
0.0
 10
90.792906
 20
256.337791
 30
0.0
 10
81.010906
 20
256.337791
 30
0.0
 10
80.951906
 20
256.278789
 30
0.0
 10
80.951906
 20
242.012778
 30
0.0
 10
77.835906
 20
242.012778
 30
0.0
 10
77.776906
 20
241.953779
 30
0.0
 10
77.776906
 20
229.171779
 30
0.0
 10
77.835906
 20
229.112777
 30
0.0
 10
80.951906
 20
229.112777
 30
0.0
 10
80.951906
 20
214.846777
 30
0.0
 10
81.010906
 20
214.787778
 30
0.0
 10
90.792906
 20
214.787778
 30
0.0
 10
90.851905
 20
214.846777
 30
0.0
 10
90.851905
 20
217.962778
 30
0.0
 10
103.351907
 20
217.962778
 30
0.0
 10
103.351907
 20
214.846777
 30
0.0
 10
103.410906
 20
214.787778
 30
0.0
 10
116.192906
 20
214.787778
 30
0.0
 10
116.251905
 20
214.846777
 30
0.0
 10
116.251905
 20
217.962778
 30
0.0
 10
128.751907
 20
217.962778
 30
0.0
 10
128.751907
 20
214.846777
 30
0.0
 10
128.810906
 20
214.787778
 30
0.0
 10
138.592907
 20
214.787778
 30
0.0
 10
138.651906
 20
214.846777
 30
0.0
 10
138.651906
 20
229.112777
 30
0.0
 10
141.767907
 20
229.112777
 30
0.0
 10
141.826906
 20
229.171779
 30
0.0
 10
141.826906
 20
241.953779
 30
0.0
 10
141.767907
 20
242.012778
 30
0.0
 10
138.651906
 20
242.012778
 30
0.0
 10
138.651906
 20
256.278789
 30
0.0
 10
138.592907
 20
256.337791
 30
0.0
 10
128.810906
 20
256.337791
 30
0.0
  0
LWPOLYLINE
  5
10a
100
AcDbEntity
  8
Layer_1
 62
7
100
AcDbPolyline
 90
56
 70
1
 10
50.251905
 20
256.278789
 30
0.0
 10
50.251905
 20
253.162764
 30
0.0
 10
37.751906
 20
253.162764
 30
0.0
 10
37.751906
 20
256.278789
 30
0.0
 10
37.692907
 20
256.337791
 30
0.0
 10
24.910904
 20
256.337791
 30
0.0
 10
24.851905
 20
256.278789
 30
0.0
 10
24.851905
 20
253.162764
 30
0.0
 10
16.460907
 20
253.162764
 30
0.0
 10
16.401904
 20
253.103789
 30
0.0
 10
16.401904
 20
243.462780
 30
0.0
 10
13.285907
 20
243.462780
 30
0.0
 10
13.226904
 20
243.403778
 30
0.0
 10
13.226904
 20
230.621778
 30
0.0
 10
13.285907
 20
230.562778
 30
0.0
 10
16.401904
 20
230.562778
 30
0.0
 10
16.401904
 20
218.062780
 30
0.0
 10
13.285907
 20
218.062780
 30
0.0
 10
13.226904
 20
218.003778
 30
0.0
 10
13.226904
 20
205.221778
 30
0.0
 10
13.285907
 20
205.162778
 30
0.0
 10
16.401904
 20
205.162778
 30
0.0
 10
16.401904
 20
195.521777
 30
0.0
 10
16.460907
 20
195.462778
 30
0.0
 10
24.851905
 20
195.462778
 30
0.0
 10
24.851905
 20
192.346777
 30
0.0
 10
24.910904
 20
192.287778
 30
0.0
 10
37.692907
 20
192.287778
 30
0.0
 10
37.751906
 20
192.346777
 30
0.0
 10
37.751906
 20
195.462778
 30
0.0
 10
50.251905
 20
195.462778
 30
0.0
 10
50.251905
 20
192.346777
 30
0.0
 10
50.310904
 20
192.287778
 30
0.0
 10
63.092907
 20
192.287778
 30
0.0
 10
63.151906
 20
192.346777
 30
0.0
 10
63.151906
 20
195.462778
 30
0.0
 10
71.542905
 20
195.462778
 30
0.0
 10
71.601907
 20
195.521777
 30
0.0
 10
71.601907
 20
205.162778
 30
0.0
 10
74.717905
 20
205.162778
 30
0.0
 10
74.776907
 20
205.221778
 30
0.0
 10
74.776907
 20
218.003778
 30
0.0
 10
74.717905
 20
218.062780
 30
0.0
 10
71.601907
 20
218.062780
 30
0.0
 10
71.601907
 20
230.562778
 30
0.0
 10
74.717905
 20
230.562778
 30
0.0
 10
74.776907
 20
230.621778
 30
0.0
 10
74.776907
 20
243.403778
 30
0.0
 10
74.717905
 20
243.462780
 30
0.0
 10
71.601907
 20
243.462780
 30
0.0
 10
71.601907
 20
253.103789
 30
0.0
 10
71.542905
 20
253.162764
 30
0.0
 10
63.151906
 20
253.162764
 30
0.0
 10
63.151906
 20
256.278789
 30
0.0
 10
63.092907
 20
256.337791
 30
0.0
 10
50.310904
 20
256.337791
 30
0.0
  0
LWPOLYLINE
  5
10b
100
AcDbEntity
  8
Layer_1
 62
7
100
AcDbPolyline
 90
44
 70
1
 10
194.551903
 20
211.728779
 30
0.0
 10
194.551903
 20
208.612778
 30
0.0
 10
182.051904
 20
208.612778
 30
0.0
 10
182.051904
 20
211.728779
 30
0.0
 10
181.992902
 20
211.787778
 30
0.0
 10
169.210905
 20
211.787778
 30
0.0
 10
169.151906
 20
211.728779
 30
0.0
 10
169.151906
 20
208.612778
 30
0.0
 10
156.651907
 20
208.612778
 30
0.0
 10
156.651907
 20
211.728779
 30
0.0
 10
156.592905
 20
211.787778
 30
0.0
 10
144.885905
 20
211.787778
 30
0.0
 10
144.826905
 20
211.728779
 30
0.0
 10
144.826905
 20
197.321777
 30
0.0
 10
144.885905
 20
197.262778
 30
0.0
 10
148.001905
 20
197.262778
 30
0.0
 10
148.001905
 20
184.762779
 30
0.0
 10
144.885905
 20
184.762779
 30
0.0
 10
144.826905
 20
184.703780
 30
0.0
 10
144.826905
 20
170.296778
 30
0.0
 10
144.885905
 20
170.237778
 30
0.0
 10
156.592905
 20
170.237778
 30
0.0
 10
156.651907
 20
170.296778
 30
0.0
 10
156.651907
 20
173.412778
 30
0.0
 10
169.151906
 20
173.412778
 30
0.0
 10
169.151906
 20
170.296778
 30
0.0
 10
169.210905
 20
170.237778
 30
0.0
 10
181.992902
 20
170.237778
 30
0.0
 10
182.051904
 20
170.296778
 30
0.0
 10
182.051904
 20
173.412778
 30
0.0
 10
194.551903
 20
173.412778
 30
0.0
 10
194.551903
 20
170.296778
 30
0.0
 10
194.610903
 20
170.237778
 30
0.0
 10
206.317903
 20
170.237778
 30
0.0
 10
206.376902
 20
170.296778
 30
0.0
 10
206.376902
 20
184.703780
 30
0.0
 10
206.317903
 20
184.762779
 30
0.0
 10
203.201902
 20
184.762779
 30
0.0
 10
203.201902
 20
197.262778
 30
0.0
 10
206.317903
 20
197.262778
 30
0.0
 10
206.376902
 20
197.321777
 30
0.0
 10
206.376902
 20
211.728779
 30
0.0
 10
206.317903
 20
211.787778
 30
0.0
 10
194.610903
 20
211.787778
 30
0.0
  0
LWPOLYLINE
  5
10c
100
AcDbEntity
  8
Layer_1
 62
7
100
AcDbPolyline
 90
44
 70
1
 10
128.751907
 20
211.728779
 30
0.0
 10
128.751907
 20
208.612778
 30
0.0
 10
116.251905
 20
208.612778
 30
0.0
 10
116.251905
 20
211.728779
 30
0.0
 10
116.192906
 20
211.787778
 30
0.0
 10
103.410906
 20
211.787778
 30
0.0
 10
103.351907
 20
211.728779
 30
0.0
 10
103.351907
 20
208.612778
 30
0.0
 10
90.851905
 20
208.612778
 30
0.0
 10
90.851905
 20
211.728779
 30
0.0
 10
90.792906
 20
211.787778
 30
0.0
 10
81.010906
 20
211.787778
 30
0.0
 10
80.951906
 20
211.728779
 30
0.0
 10
80.951906
 20
197.462779
 30
0.0
 10
77.835906
 20
197.462779
 30
0.0
 10
77.776906
 20
197.403780
 30
0.0
 10
77.776906
 20
184.621777
 30
0.0
 10
77.835906
 20
184.562778
 30
0.0
 10
80.951906
 20
184.562778
 30
0.0
 10
80.951906
 20
170.296778
 30
0.0
 10
81.010906
 20
170.237778
 30
0.0
 10
90.792906
 20
170.237778
 30
0.0
 10
90.851905
 20
170.296778
 30
0.0
 10
90.851905
 20
173.412778
 30
0.0
 10
103.351907
 20
173.412778
 30
0.0
 10
103.351907
 20
170.296778
 30
0.0
 10
103.410906
 20
170.237778
 30
0.0
 10
116.192903
 20
170.237778
 30
0.0
 10
116.251903
 20
170.296778
 30
0.0
 10
116.251903
 20
173.412778
 30
0.0
 10
128.751904
 20
173.412778
 30
0.0
 10
128.751904
 20
170.296778
 30
0.0
 10
128.810904
 20
170.237778
 30
0.0
 10
138.592904
 20
170.237778
 30
0.0
 10
138.651903
 20
170.296778
 30
0.0
 10
138.651903
 20
184.562778
 30
0.0
 10
141.767904
 20
184.562778
 30
0.0
 10
141.826903
 20
184.621777
 30
0.0
 10
141.826903
 20
197.403780
 30
0.0
 10
141.767904
 20
197.462779
 30
0.0
 10
138.651903
 20
197.462779
 30
0.0
 10
138.651903
 20
211.728779
 30
0.0
 10
138.592904
 20
211.787778
 30
0.0
 10
128.810904
 20
211.787778
 30
0.0
  0
LWPOLYLINE
  5
10d
100
AcDbEntity
  8
Layer_1
 62
7
100
AcDbPolyline
 90
56
 70
1
 10
50.251905
 20
189.228779
 30
0.0
 10
50.251905
 20
186.112778
 30
0.0
 10
37.751906
 20
186.112778
 30
0.0
 10
37.751906
 20
189.228779
 30
0.0
 10
37.692907
 20
189.287778
 30
0.0
 10
24.910904
 20
189.287778
 30
0.0
 10
24.851905
 20
189.228779
 30
0.0
 10
24.851905
 20
186.112778
 30
0.0
 10
16.460907
 20
186.112778
 30
0.0
 10
16.401904
 20
186.053779
 30
0.0
 10
16.401904
 20
176.412778
 30
0.0
 10
13.285907
 20
176.412778
 30
0.0
 10
13.226904
 20
176.353778
 30
0.0
 10
13.226904
 20
163.571779
 30
0.0
 10
13.285907
 20
163.512779
 30
0.0
 10
16.401904
 20
163.512779
 30
0.0
 10
16.401904
 20
151.012778
 30
0.0
 10
13.285907
 20
151.012778
 30
0.0
 10
13.226904
 20
150.953778
 30
0.0
 10
13.226904
 20
138.171779
 30
0.0
 10
13.285907
 20
138.112779
 30
0.0
 10
16.401904
 20
138.112779
 30
0.0
 10
16.401904
 20
128.471778
 30
0.0
 10
16.460907
 20
128.412778
 30
0.0
 10
24.851905
 20
128.412778
 30
0.0
 10
24.851905
 20
125.296775
 30
0.0
 10
24.910904
 20
125.237776
 30
0.0
 10
37.692907
 20
125.237776
 30
0.0
 10
37.751906
 20
125.296775
 30
0.0
 10
37.751906
 20
128.412778
 30
0.0
 10
50.251905
 20
128.412778
 30
0.0
 10
50.251905
 20
125.296775
 30
0.0
 10
50.310904
 20
125.237776
 30
0.0
 10
63.092907
 20
125.237776
 30
0.0
 10
63.151906
 20
125.296775
 30
0.0
 10
63.151906
 20
128.412778
 30
0.0
 10
71.542905
 20
128.412778
 30
0.0
 10
71.601907
 20
128.471778
 30
0.0
 10
71.601907
 20
138.112779
 30
0.0
 10
74.717905
 20
138.112779
 30
0.0
 10
74.776907
 20
138.171779
 30
0.0
 10
74.776907
 20
150.953778
 30
0.0
 10
74.717905
 20
151.012778
 30
0.0
 10
71.601907
 20
151.012778
 30
0.0
 10
71.601907
 20
163.512779
 30
0.0
 10
74.717905
 20
163.512779
 30
0.0
 10
74.776907
 20
163.571779
 30
0.0
 10
74.776907
 20
176.353778
 30
0.0
 10
74.717905
 20
176.412778
 30
0.0
 10
71.601907
 20
176.412778
 30
0.0
 10
71.601907
 20
186.053779
 30
0.0
 10
71.542905
 20
186.112778
 30
0.0
 10
63.151906
 20
186.112778
 30
0.0
 10
63.151906
 20
189.228779
 30
0.0
 10
63.092907
 20
189.287778
 30
0.0
 10
50.310904
 20
189.287778
 30
0.0
  0
ENDSEC
  0
SECTION
  2
OBJECTS
  0
DICTIONARY
  5
C
330
0
100
AcDbDictionary
  3
ACAD_GROUP
350
D
  3
ACAD_MLINESTYLE
350
17
  0
DICTIONARY
  5
D
330
C
100
AcDbDictionary
  0
DICTIONARY
  5
1A
330
C
100
AcDbDictionary
  0
DICTIONARY
  5
17
330
C
100
AcDbDictionary
  3
STANDARD
350
18
  0
DICTIONARY
  5
19
330
C
100
AcDbDictionary
  0
ENDSEC
  0
EOF
