<?xml version="1.0" encoding="UTF-8" standalone="no"?>
<svg
   xmlns:dc="http://purl.org/dc/elements/1.1/"
   xmlns:cc="http://creativecommons.org/ns#"
   xmlns:rdf="http://www.w3.org/1999/02/22-rdf-syntax-ns#"
   xmlns:svg="http://www.w3.org/2000/svg"
   xmlns="http://www.w3.org/2000/svg"
   xmlns:sodipodi="http://sodipodi.sourceforge.net/DTD/sodipodi-0.dtd"
   xmlns:inkscape="http://www.inkscape.org/namespaces/inkscape"
   width="793.700787402"
   height="1122.51968504"
   version="1.1"
   id="svg50"
   sodipodi:docname="box.svg"
   inkscape:version="0.92.4 (5da689c313, 2019-01-14)">
  <metadata
     id="metadata54">
    <rdf:RDF>
      <cc:Work
         rdf:about="">
        <dc:format>image/svg+xml</dc:format>
        <dc:type
           rdf:resource="http://purl.org/dc/dcmitype/StillImage" />
        <dc:title></dc:title>
      </cc:Work>
    </rdf:RDF>
  </metadata>
  <sodipodi:namedview
     pagecolor="#ffffff"
     bordercolor="#666666"
     borderopacity="1"
     objecttolerance="10"
     gridtolerance="10"
     guidetolerance="10"
     inkscape:pageopacity="0"
     inkscape:pageshadow="2"
     inkscape:window-width="1920"
     inkscape:window-height="1017"
     id="namedview52"
     showgrid="false"
     inkscape:zoom="0.84096523"
     inkscape:cx="428.03504"
     inkscape:cy="547.98369"
     inkscape:window-x="1672"
     inkscape:window-y="383"
     inkscape:window-maximized="1"
     inkscape:current-layer="g48" />
  <desc
     id="desc2">C:\Users\seans\OneDrive\Personal Projects\Audio Controlled Amp Relay\box.dxf - scale = 1.000000, origin = (0.000000, 0.000000), method = manual</desc>
  <defs
     id="defs16">
    <marker
       id="DistanceX"
       orient="auto"
       refX="0.0"
       refY="0.0"
       style="overflow:visible">
      <path
         d="M 3,-3 L -3,3 M 0,-5 L  0,5"
         style="stroke:#000000; stroke-width:0.5"
         id="path4" />
    </marker>
    <pattern
       height="8"
       id="Hatch"
       patternUnits="userSpaceOnUse"
       width="8"
       x="0"
       y="0">
      <path
         d="M8 4 l-4,4"
         linecap="square"
         stroke="#000000"
         stroke-width="0.25"
         id="path7" />
      <path
         d="M6 2 l-4,4"
         linecap="square"
         stroke="#000000"
         stroke-width="0.25"
         id="path9" />
      <path
         d="M4 0 l-4,4"
         linecap="square"
         stroke="#000000"
         stroke-width="0.25"
         id="path11" />
    </pattern>
    <symbol
       id="*MODEL_SPACE" />
    <symbol
       id="*PAPER_SPACE" />
  </defs>
  <g
     inkscape:groupmode="layer"
     inkscape:label="0"
     id="g18" />
  <g
     inkscape:groupmode="layer"
     inkscape:label="Layer_1"
     id="g48">
    <path
       d="M 85.533214,964.129928 L 157.353993,964.129928 L 157.353993,942.407546 L 170.588364,942.407546 L 170.588364,902.335408 L 138.665654,902.335408 L 138.665654,880.790362 L 104.249446,880.790362 L 104.249446,902.324372 L 72.311025,902.324372 L 72.311025,942.384113 L 85.529775,942.384113 L 85.533214,964.129928 z"
       style="stroke:#000000;fill:none"
       id="path20" />
    <path
       d="M 95.433071,1000.879370 L 95.433071,989.102362 L 142.677165,989.102362 L 142.677165,1000.879370 L 142.900157,1001.102362 L 191.210079,1001.102362 L 191.433071,1000.879370 L 191.433071,989.102362 L 238.677165,989.102362 L 238.677165,1000.879370 L 238.900157,1001.102362 L 283.147087,1001.102362 L 283.370079,1000.879370 L 283.370079,946.427717 L 283.147087,946.204724 L 271.370079,946.204724 L 271.370079,898.960630 L 283.147087,898.960630 L 283.370079,898.737638 L 283.370079,844.285984 L 283.147087,844.062992 L 238.900157,844.062992 L 238.677165,844.285984 L 238.677165,856.062992 L 191.433071,856.062992 L 191.433071,844.285984 L 191.210079,844.062992 L 142.900157,844.062992 L 142.677165,844.285984 L 142.677165,856.062992 L 95.433071,856.062992 L 95.433071,844.285984 L 95.210079,844.062992 L 50.963150,844.062992 L 50.740157,844.285984 L 50.740157,898.737638 L 50.963150,898.960630 L 62.740157,898.960630 L 62.740157,946.204724 L 50.963150,946.204724 L 50.740157,946.427717 L 50.740157,1000.879370 L 50.963150,1001.102362 L 95.210079,1001.102362 L 95.433071,1000.879370 z"
       style="stroke:#000000;fill:none"
       id="path22" />
    <path
       d="M 344.125984,1000.879370 L 344.125984,989.102362 L 391.370079,989.102362 L 391.370079,1000.879370 L 391.593071,1001.102362 L 439.902992,1001.102362 L 440.125984,1000.879370 L 440.125984,989.102362 L 487.370079,989.102362 L 487.370079,1000.879370 L 487.593071,1001.102362 L 524.564409,1001.102362 L 524.787402,1000.879370 L 524.787402,946.960630 L 536.564409,946.960630 L 536.787402,946.737638 L 536.787402,898.427717 L 536.564409,898.204724 L 524.787402,898.204724 L 524.787402,844.285984 L 524.564409,844.062992 L 487.593071,844.062992 L 487.370079,844.285984 L 487.370079,856.062992 L 440.125984,856.062992 L 440.125984,844.285984 L 439.902992,844.062992 L 391.593071,844.062992 L 391.370079,844.285984 L 391.370079,856.062992 L 344.125984,856.062992 L 344.125984,844.285984 L 343.902992,844.062992 L 306.931654,844.062992 L 306.708661,844.285984 L 306.708661,898.204724 L 294.931654,898.204724 L 294.708661,898.427717 L 294.708661,946.737638 L 294.931654,946.960630 L 306.708661,946.960630 L 306.708661,1000.879370 L 306.931654,1001.102362 L 343.902992,1001.102362 L 344.125984,1000.879370 z"
       style="stroke:#000000;fill:none"
       id="path24" />
    <path
       d="M 640.818898,1000.879370 L 640.818898,989.102362 L 688.062992,989.102362 L 688.062992,1000.879370 L 688.285984,1001.102362 L 736.595906,1001.102362 L 736.818898,1000.879370 L 736.818898,989.102362 L 768.532913,989.102362 L 768.755906,988.879370 L 768.755906,952.440945 L 780.532913,952.440945 L 780.755906,952.217953 L 780.755906,903.908031 L 780.532913,903.685039 L 768.755906,903.685039 L 768.755906,856.440945 L 780.532913,856.440945 L 780.755906,856.217953 L 780.755906,807.908031 L 780.532913,807.685039 L 768.755906,807.685039 L 768.755906,771.246614 L 768.532913,771.023622 L 736.818898,771.023622 L 736.818898,759.246614 L 736.595906,759.023622 L 688.285984,759.023622 L 688.062992,759.246614 L 688.062992,771.023622 L 640.818898,771.023622 L 640.818898,759.246614 L 640.595906,759.023622 L 592.285984,759.023622 L 592.062992,759.246614 L 592.062992,771.023622 L 560.348976,771.023622 L 560.125984,771.246614 L 560.125984,807.685039 L 548.348976,807.685039 L 548.125984,807.908031 L 548.125984,856.217953 L 548.348976,856.440945 L 560.125984,856.440945 L 560.125984,903.685039 L 548.348976,903.685039 L 548.125984,903.908031 L 548.125984,952.217953 L 548.348976,952.440945 L 560.125984,952.440945 L 560.125984,988.879370 L 560.348976,989.102362 L 592.062992,989.102362 L 592.062992,1000.879370 L 592.285984,1001.102362 L 640.595906,1001.102362 L 640.818898,1000.879370 z"
       style="stroke:#000000;fill:none"
       id="path26" />
    <path
       d="M 95.433071,832.501417 L 95.433071,820.724409 L 142.677165,820.724409 L 142.677165,832.501417 L 142.900157,832.724409 L 191.210079,832.724409 L 191.433071,832.501417 L 191.433071,820.724409 L 238.677165,820.724409 L 238.677165,832.501417 L 238.900157,832.724409 L 283.147087,832.724409 L 283.370079,832.501417 L 283.370079,778.049764 L 283.147087,777.826772 L 271.370079,777.826772 L 271.370079,730.582677 L 283.147087,730.582677 L 283.370079,730.359685 L 283.370079,675.908031 L 283.147087,675.685039 L 238.900157,675.685039 L 238.677165,675.908031 L 238.677165,687.685039 L 191.433071,687.685039 L 191.433071,675.908031 L 191.210079,675.685039 L 142.900157,675.685039 L 142.677165,675.908031 L 142.677165,687.685039 L 95.433071,687.685039 L 95.433071,675.908031 L 95.210079,675.685039 L 50.963150,675.685039 L 50.740157,675.908031 L 50.740157,730.359685 L 50.963150,730.582677 L 62.740157,730.582677 L 62.740157,777.826772 L 50.963150,777.826772 L 50.740157,778.049764 L 50.740157,832.501417 L 50.963150,832.724409 L 95.210079,832.724409 L 95.433071,832.501417 z"
       style="stroke:#000000;fill:none"
       id="path28" />
    <path
       d="M 344.125984,832.501417 L 344.125984,820.724409 L 391.370079,820.724409 L 391.370079,832.501417 L 391.593071,832.724409 L 439.902992,832.724409 L 440.125984,832.501417 L 440.125984,820.724409 L 487.370079,820.724409 L 487.370079,832.501417 L 487.593071,832.724409 L 524.564409,832.724409 L 524.787402,832.501417 L 524.787402,778.582677 L 536.564409,778.582677 L 536.787402,778.359685 L 536.787402,730.049764 L 536.564409,729.826772 L 524.787402,729.826772 L 524.787402,675.908031 L 524.564409,675.685039 L 487.593071,675.685039 L 487.370079,675.908031 L 487.370079,687.685039 L 440.125984,687.685039 L 440.125984,675.908031 L 439.902992,675.685039 L 391.593071,675.685039 L 391.370079,675.908031 L 391.370079,687.685039 L 344.125984,687.685039 L 344.125984,675.908031 L 343.902992,675.685039 L 306.931654,675.685039 L 306.708661,675.908031 L 306.708661,729.826772 L 294.931654,729.826772 L 294.708661,730.049764 L 294.708661,778.359685 L 294.931654,778.582677 L 306.708661,778.582677 L 306.708661,832.501417 L 306.931654,832.724409 L 343.902992,832.724409 L 344.125984,832.501417 z"
       style="stroke:#000000;fill:none"
       id="path30" />
    <path
       d="M 640.818898,747.462047 L 640.818898,735.685039 L 688.062992,735.685039 L 688.062992,747.462047 L 688.285984,747.685039 L 736.595906,747.685039 L 736.818898,747.462047 L 736.818898,735.685039 L 768.532913,735.685039 L 768.755906,735.462047 L 768.755906,699.023622 L 780.532913,699.023622 L 780.755906,698.800630 L 780.755906,650.490709 L 780.532913,650.267717 L 768.755906,650.267717 L 768.755906,603.023622 L 780.532913,603.023622 L 780.755906,602.800630 L 780.755906,554.490709 L 780.532913,554.267717 L 768.755906,554.267717 L 768.755906,517.829291 L 768.532913,517.606299 L 736.818898,517.606299 L 736.818898,505.829291 L 736.595906,505.606299 L 688.285984,505.606299 L 688.062992,505.829291 L 688.062992,517.606299 L 640.818898,517.606299 L 640.818898,505.829291 L 640.595906,505.606299 L 592.285984,505.606299 L 592.062992,505.829291 L 592.062992,517.606299 L 560.348976,517.606299 L 560.125984,517.829291 L 560.125984,554.267717 L 548.348976,554.267717 L 548.125984,554.490709 L 548.125984,602.800630 L 548.348976,603.023622 L 560.125984,603.023622 L 560.125984,650.267717 L 548.348976,650.267717 L 548.125984,650.490709 L 548.125984,698.800630 L 548.348976,699.023622 L 560.125984,699.023622 L 560.125984,735.462047 L 560.348976,735.685039 L 592.062992,735.685039 L 592.062992,747.462047 L 592.285984,747.685039 L 640.595906,747.685039 L 640.818898,747.462047 z"
       style="stroke:#000000;fill:none"
       id="path32" />
    <g
       id="g96"
       transform="rotate(180,391.81168,370.16415)">
      <path
         id="path20-3"
         style="fill:none;stroke:#000000"
         d="M 38.409221,549.67186 H 110.22999 V 527.9495 h 13.23437 V 487.87736 H 91.541661 v -21.54505 h -34.4162 v 21.53401 H 25.18703 v 40.05974 h 13.21875 z"
         inkscape:connector-curvature="0" />
      <path
         id="path22-6"
         style="fill:none;stroke:#000000"
         d="m 48.309081,586.42136 v -11.7771 H 95.55317 v 11.7771 l 0.223,0.223 h 48.30991 l 0.22299,-0.223 v -11.7771 h 47.24409 v 11.7771 l 0.223,0.223 h 44.24693 l 0.22299,-0.223 v -54.45169 l -0.22299,-0.223 h -11.77701 v -47.24409 h 11.77701 l 0.22299,-0.22299 v -54.45166 l -0.22299,-0.22299 h -44.24693 l -0.223,0.22299 v 11.77701 h -47.24409 v -11.77701 l -0.22299,-0.22299 H 95.77617 l -0.223,0.22299 v 11.77701 H 48.30908 v -11.77701 l -0.223,-0.22299 H 3.8391505 l -0.22299,0.22299 v 54.45166 l 0.22299,0.22299 H 15.61616 v 47.24409 H 3.8391505 l -0.22299,0.223 v 54.45169 l 0.22299,0.223 H 48.08608 Z"
         inkscape:connector-curvature="0" />
      <path
         id="path24-3"
         style="fill:none;stroke:#000000"
         d="m 297.00198,586.42136 v -11.7771 h 47.2441 v 11.7771 l 0.22299,0.223 h 48.30992 l 0.22299,-0.223 v -11.7771 h 47.2441 v 11.7771 l 0.22299,0.223 h 36.97134 l 0.22299,-0.223 v -53.91878 h 11.77701 l 0.22299,-0.22299 v -48.30992 l -0.22299,-0.223 H 477.6634 v -53.91874 l -0.22299,-0.22299 h -36.97134 l -0.22299,0.22299 v 11.77701 h -47.2441 v -11.77701 l -0.22299,-0.22299 h -48.30992 l -0.22299,0.22299 v 11.77701 h -47.2441 v -11.77701 l -0.22299,-0.22299 h -36.97134 l -0.22299,0.22299 v 53.91874 h -11.77701 l -0.22299,0.223 v 48.30992 l 0.22299,0.22299 h 11.77701 v 53.91878 l 0.22299,0.223 h 36.97134 z"
         inkscape:connector-curvature="0" />
      <path
         id="path26-7"
         style="fill:none;stroke:#000000"
         d="m 593.6949,586.42136 v -11.7771 h 47.24409 v 11.7771 l 0.22299,0.223 h 48.30993 l 0.22299,-0.223 v -11.7771 h 31.71401 l 0.223,-0.2229 V 537.9829 h 11.777 l 0.223,-0.223 v -48.30992 l -0.223,-0.22299 h -11.777 V 441.9829 h 11.777 l 0.223,-0.223 v -48.30992 l -0.223,-0.22299 h -11.777 v -36.43843 l -0.223,-0.22299 H 689.6949 v -11.77701 l -0.22299,-0.22299 h -48.30993 l -0.22299,0.22299 v 11.77701 H 593.6949 v -11.77701 l -0.22299,-0.22299 h -48.30993 l -0.22299,0.22299 v 11.77701 h -31.71401 l -0.223,0.22299 v 36.43843 h -11.777 l -0.223,0.22299 v 48.30992 l 0.223,0.223 h 11.777 v 47.24409 h -11.777 l -0.223,0.22299 v 48.30992 l 0.223,0.223 h 11.777 v 36.43846 l 0.223,0.2229 h 31.71401 v 11.7771 l 0.22299,0.223 h 48.30993 z"
         inkscape:connector-curvature="0" />
      <path
         id="path28-6"
         style="fill:none;stroke:#000000"
         d="m 48.30908,418.04337 v -11.77701 h 47.24409 v 11.77701 l 0.223,0.22299 h 48.30991 l 0.22299,-0.22299 v -11.77701 h 47.24409 v 11.77701 l 0.223,0.22299 h 44.24693 l 0.22299,-0.22299 v -54.45166 l -0.22299,-0.22299 h -11.77701 v -47.24409 h 11.77701 l 0.22299,-0.22299 v -54.45166 l -0.22299,-0.22299 h -44.24693 l -0.223,0.22299 v 11.77701 h -47.24409 v -11.77701 l -0.22299,-0.22299 H 95.77617 l -0.223,0.22299 v 11.77701 H 48.30908 v -11.77701 l -0.22299,-0.22299 H 3.8391595 l -0.22299,0.22299 v 54.45166 l 0.22299,0.22299 H 15.61617 v 47.24409 H 3.8391595 l -0.22299,0.22299 v 54.45166 l 0.22299,0.22299 H 48.08609 Z"
         inkscape:connector-curvature="0" />
      <path
         id="path30-0"
         style="fill:none;stroke:#000000"
         d="m 297.00198,418.04337 v -11.77701 h 47.2441 v 11.77701 l 0.22299,0.22299 h 48.30992 l 0.22299,-0.22299 v -11.77701 h 47.2441 v 11.77701 l 0.22299,0.22299 h 36.97134 l 0.22299,-0.22299 v -53.91874 h 11.77701 l 0.22299,-0.22299 v -48.30993 l -0.22299,-0.22299 H 477.6634 v -53.91874 l -0.22299,-0.22299 h -36.97134 l -0.22299,0.22299 v 11.77701 h -47.2441 v -11.77701 l -0.22299,-0.22299 h -48.30991 l -0.22299,0.22299 v 11.77701 h -47.2441 v -11.77701 l -0.22299,-0.22299 h -36.97134 l -0.22299,0.22299 v 53.91874 h -11.77701 l -0.22299,0.22299 v 48.30993 l 0.22299,0.22299 h 11.77701 v 53.91874 l 0.22299,0.22299 H 296.779 Z"
         inkscape:connector-curvature="0" />
      <path
         id="path32-2"
         style="fill:none;stroke:#000000"
         d="m 593.6949,333.004 v -11.77701 h 47.24409 V 333.004 l 0.22299,0.22299 h 48.30993 l 0.22299,-0.22299 v -11.77701 h 31.71401 l 0.223,-0.22299 v -36.43843 h 11.777 l 0.223,-0.22299 v -48.30992 l -0.223,-0.22299 h -11.777 v -47.2441 h 11.777 l 0.223,-0.22299 v -48.30992 l -0.223,-0.22299 h -11.777 v -36.43843 l -0.223,-0.22299 H 689.6949 V 91.37123 l -0.22299,-0.22299 h -48.30993 l -0.22299,0.22299 v 11.77702 H 593.6949 V 91.37123 l -0.22299,-0.22299 h -48.30993 l -0.22299,0.22299 v 11.77702 h -31.71401 l -0.223,0.22299 v 36.43843 h -11.777 l -0.223,0.22299 v 48.30992 l 0.223,0.22299 h 11.777 v 47.2441 h -11.777 l -0.223,0.22299 v 48.30992 l 0.223,0.22299 h 11.777 V 321.004 l 0.223,0.22299 h 31.71401 V 333.004 l 0.22299,0.22299 h 48.30993 z"
         inkscape:connector-curvature="0" />
    </g>
  </g>
</svg>
