<svg width="193.15mm" height="131.1mm" viewBox="0 0 193.15 131.1" xmlns="http://www.w3.org/2000/svg" version="1.1" preserveAspectRatio="xMidYMid meet"><g id="svgGroup" stroke-linecap="round" fill-rule="evenodd" font-size="9pt" stroke="#000" stroke-width="0.25mm" fill="none" style="stroke:#000;stroke-width:0.25mm;fill:none"><path d="M 11.825 131.041 L 11.825 127.925 L 24.325 127.925 L 24.325 131.041 L 24.384 131.1 L 37.166 131.1 L 37.225 131.041 L 37.225 127.925 L 49.725 127.925 L 49.725 131.041 L 49.784 131.1 L 61.491 131.1 L 61.55 131.041 L 61.55 116.634 L 61.491 116.575 L 58.375 116.575 L 58.375 104.075 L 61.491 104.075 L 61.55 104.016 L 61.55 89.609 L 61.491 89.55 L 49.784 89.55 L 49.725 89.609 L 49.725 92.725 L 37.225 92.725 L 37.225 89.609 L 37.166 89.55 L 24.384 89.55 L 24.325 89.609 L 24.325 92.725 L 11.825 92.725 L 11.825 89.609 L 11.766 89.55 L 0.059 89.55 L 0 89.609 L 0 104.016 L 0.059 104.075 L 3.175 104.075 L 3.175 116.575 L 0.059 116.575 L 0 116.634 L 0 131.041 L 0.059 131.1 L 11.766 131.1 L 11.825 131.041 Z" id="front_outsideCutPath" stroke="#000000" stroke-width="0.1" style="stroke:#000000;stroke-width:0.1" vector-effect="non-scaling-stroke"/><path d="M 77.625 131.041 L 77.625 127.925 L 90.125 127.925 L 90.125 131.041 L 90.184 131.1 L 102.966 131.1 L 103.025 131.041 L 103.025 127.925 L 115.525 127.925 L 115.525 131.041 L 115.584 131.1 L 125.366 131.1 L 125.425 131.041 L 125.425 116.775 L 128.541 116.775 L 128.6 116.716 L 128.6 103.934 L 128.541 103.875 L 125.425 103.875 L 125.425 89.609 L 125.366 89.55 L 115.584 89.55 L 115.525 89.609 L 115.525 92.725 L 103.025 92.725 L 103.025 89.609 L 102.966 89.55 L 90.184 89.55 L 90.125 89.609 L 90.125 92.725 L 77.625 92.725 L 77.625 89.609 L 77.566 89.55 L 67.784 89.55 L 67.725 89.609 L 67.725 103.875 L 64.609 103.875 L 64.55 103.934 L 64.55 116.716 L 64.609 116.775 L 67.725 116.775 L 67.725 131.041 L 67.784 131.1 L 77.566 131.1 L 77.625 131.041 Z" id="left_outsideCutPath" stroke="#000000" stroke-width="0.1" style="stroke:#000000;stroke-width:0.1" vector-effect="non-scaling-stroke"/><path d="M 156.125 131.041 L 156.125 127.925 L 168.625 127.925 L 168.625 131.041 L 168.684 131.1 L 181.466 131.1 L 181.525 131.041 L 181.525 127.925 L 189.916 127.925 L 189.975 127.866 L 189.975 118.225 L 193.091 118.225 L 193.15 118.166 L 193.15 105.384 L 193.091 105.325 L 189.975 105.325 L 189.975 92.825 L 193.091 92.825 L 193.15 92.766 L 193.15 79.984 L 193.091 79.925 L 189.975 79.925 L 189.975 70.284 L 189.916 70.225 L 181.525 70.225 L 181.525 67.109 L 181.466 67.05 L 168.684 67.05 L 168.625 67.109 L 168.625 70.225 L 156.125 70.225 L 156.125 67.109 L 156.066 67.05 L 143.284 67.05 L 143.225 67.109 L 143.225 70.225 L 134.834 70.225 L 134.775 70.284 L 134.775 79.925 L 131.659 79.925 L 131.6 79.984 L 131.6 92.766 L 131.659 92.825 L 134.775 92.825 L 134.775 105.325 L 131.659 105.325 L 131.6 105.384 L 131.6 118.166 L 131.659 118.225 L 134.775 118.225 L 134.775 127.866 L 134.834 127.925 L 143.225 127.925 L 143.225 131.041 L 143.284 131.1 L 156.066 131.1 L 156.125 131.041 Z" id="top_outsideCutPath" stroke="#000000" stroke-width="0.1" style="stroke:#000000;stroke-width:0.1" vector-effect="non-scaling-stroke"/><path d="M 11.825 86.491 L 11.825 83.375 L 24.325 83.375 L 24.325 86.491 L 24.384 86.55 L 37.166 86.55 L 37.225 86.491 L 37.225 83.375 L 49.725 83.375 L 49.725 86.491 L 49.784 86.55 L 61.491 86.55 L 61.55 86.491 L 61.55 72.084 L 61.491 72.025 L 58.375 72.025 L 58.375 59.525 L 61.491 59.525 L 61.55 59.466 L 61.55 45.059 L 61.491 45 L 49.784 45 L 49.725 45.059 L 49.725 48.175 L 37.225 48.175 L 37.225 45.059 L 37.166 45 L 24.384 45 L 24.325 45.059 L 24.325 48.175 L 11.825 48.175 L 11.825 45.059 L 11.766 45 L 0.059 45 L 0 45.059 L 0 59.466 L 0.059 59.525 L 3.175 59.525 L 3.175 72.025 L 0.059 72.025 L 0 72.084 L 0 86.491 L 0.059 86.55 L 11.766 86.55 L 11.825 86.491 Z" id="back_outsideCutPath" stroke="#000000" stroke-width="0.1" style="stroke:#000000;stroke-width:0.1" vector-effect="non-scaling-stroke"/><path d="M 77.625 86.491 L 77.625 83.375 L 90.125 83.375 L 90.125 86.491 L 90.184 86.55 L 102.966 86.55 L 103.025 86.491 L 103.025 83.375 L 115.525 83.375 L 115.525 86.491 L 115.584 86.55 L 125.366 86.55 L 125.425 86.491 L 125.425 72.225 L 128.541 72.225 L 128.6 72.166 L 128.6 59.384 L 128.541 59.325 L 125.425 59.325 L 125.425 45.059 L 125.366 45 L 115.584 45 L 115.525 45.059 L 115.525 48.175 L 103.025 48.175 L 103.025 45.059 L 102.966 45 L 90.184 45 L 90.125 45.059 L 90.125 48.175 L 77.625 48.175 L 77.625 45.059 L 77.566 45 L 67.784 45 L 67.725 45.059 L 67.725 59.325 L 64.609 59.325 L 64.55 59.384 L 64.55 72.166 L 64.609 72.225 L 67.725 72.225 L 67.725 86.491 L 67.784 86.55 L 77.566 86.55 L 77.625 86.491 Z" id="right_outsideCutPath" stroke="#000000" stroke-width="0.1" style="stroke:#000000;stroke-width:0.1" vector-effect="non-scaling-stroke"/><path d="M 156.125 63.991 L 156.125 60.875 L 168.625 60.875 L 168.625 63.991 L 168.684 64.05 L 181.466 64.05 L 181.525 63.991 L 181.525 60.875 L 189.916 60.875 L 189.975 60.816 L 189.975 51.175 L 193.091 51.175 L 193.15 51.116 L 193.15 38.334 L 193.091 38.275 L 189.975 38.275 L 189.975 25.775 L 193.091 25.775 L 193.15 25.716 L 193.15 12.934 L 193.091 12.875 L 189.975 12.875 L 189.975 3.234 L 189.916 3.175 L 181.525 3.175 L 181.525 0.059 L 181.466 0 L 168.684 0 L 168.625 0.059 L 168.625 3.175 L 156.125 3.175 L 156.125 0.059 L 156.066 0 L 143.284 0 L 143.225 0.059 L 143.225 3.175 L 134.834 3.175 L 134.775 3.234 L 134.775 12.875 L 131.659 12.875 L 131.6 12.934 L 131.6 25.716 L 131.659 25.775 L 134.775 25.775 L 134.775 38.275 L 131.659 38.275 L 131.6 38.334 L 131.6 51.116 L 131.659 51.175 L 134.775 51.175 L 134.775 60.816 L 134.834 60.875 L 143.225 60.875 L 143.225 63.991 L 143.284 64.05 L 156.066 64.05 L 156.125 63.991 Z" id="bottom_outsideCutPath" stroke="#000000" stroke-width="0.1" style="stroke:#000000;stroke-width:0.1" vector-effect="non-scaling-stroke"/></g></svg>